<?xml version="1.0" encoding="utf-8"?>
<!-- Generator: Adobe Illustrator 16.0.0, SVG Export Plug-In . SVG Version: 6.00 Build 0)  -->
<!DOCTYPE svg PUBLIC "-//W3C//DTD SVG 1.1//EN" "http://www.w3.org/Graphics/SVG/1.1/DTD/svg11.dtd">
<svg version="1.1" id="Layer_1" xmlns="http://www.w3.org/2000/svg" xmlns:xlink="http://www.w3.org/1999/xlink" x="0px" y="0px"
	 width="474.95px" height="171.22px" viewBox="0 0 474.95 171.22" enable-background="new 0 0 474.95 171.22" xml:space="preserve">
<path fill="#1FA269" d="M411.323,65.38"/>
<path fill="#1FA267" d="M459.258,91.925c-2.51-1.964-4.449-4.428-6.543-6.804c-7.549-8.564-16.344-15.693-26.039-21.766
	c-6.762-4.234-13.607-8.143-21.51-9.837c-1.752-0.376-2.906-1.653-3.734-3.159c-2.203-3.999-5.703-6.909-8.609-10.31
	c-2.973-3.477-6.156-6.773-9.248-10.148c0.168-0.195,0.338-0.391,0.504-0.586c4.564,2.767,9.344,5.236,13.645,8.366
	c7.559,5.502,15.049,11.111,23.051,15.929c4.723,2.843,9.648,5.483,15.049,6.982l0.002,0.001c2.469,1.357,4.863,2.829,7.234,4.356
	c1.125,0.725,2.762,2.165,4.021,0.75c1.033-1.159-0.707-2.301-1.17-3.468c-0.107-0.115-0.209-0.231-0.311-0.347
	c-1.678-1.868-3.209-3.843-4.42-6.056c-0.408-0.434-0.488-1.193-0.721-1.802c-0.189-0.491-0.477-0.882-1.117-0.925
	c0.012-0.091,0.021-0.182,0.037-0.272c-0.117-0.624-0.451-1.132-0.842-1.621c-6.043-7.549-13.508-13.392-22.26-17.342
	c-11.471-5.18-23.273-9.584-35.609-12.284c-3.193-0.699-5.771-2.097-7.871-4.411c-1.5-1.657-3.146-3.015-5.072-3.916
	c2.096,0.246,4.193,0.358,6.316,0.191c1.084-0.085,2.105-0.451,3.158-0.685l1.533,0.692c1.6,0.912,3.256,1.634,4.951,2.235
	l0.066,0.029l0.01-0.001c1.527,0.538,3.088,0.98,4.674,1.355c7.889,1.869,15.771,3.767,23.637,5.727
	c4.955,1.234,9.973,2.212,14.848,3.783c0.98,0.316,2.504,0.603,3.033-0.776c0.564-1.461-0.676-2.136-1.758-2.839
	c-5.902-3.839-12.076-7.178-18.418-10.215c-0.65-0.312-1.303-0.624-1.959-0.93c0,0-19.914-4.43-32.904-0.093l0.645,0.291
	c-3.563,0.098-7.123,0.205-10.686,0.295v0v0c-0.137-0.015-0.271-0.048-0.402-0.085c-0.033-0.009-0.068-0.01-0.1-0.021
	c-1.236,0.017-2.475,0.111-3.707,0.034c-1.861-0.118-2.113,0.6-1.402,2.172c1.166,2.579,1.979,5.293,2.414,8.083
	c1.834,11.671,2.449,23.456,3.316,35.223c0.447,6.042,0.594,12.173,2.258,18.062c2.137,7.568,5.467,14.712,8.154,22.087
	c0.314,0.869,0.545,2.051,1.871,1.832c1.393-0.232,1.35-1.451,1.414-2.501c0.52-8.263,1.146-16.52,1.504-24.789
	c0.42-9.559-0.996-18.933-2.877-28.303c-1.537-7.642-3.197-15.176-6.631-22.219c0.207-0.206,0.416-0.411,0.619-0.617l0,0l0,0
	c4.443,3.533,7.707,7.73,7.855,13.729c0.027,1.144,0.152,2.294,0.338,3.425c2.58,15.659,5.344,31.29,7.699,46.982
	c1.199,7.978,3.875,15.57,5.35,23.457c0.188,1.005,0.582,2.014,1.818,1.855c1.244-0.162,1.322-1.276,1.316-2.271
	c-0.012-1.412,0.086-2.855-0.17-4.229c-0.994-5.354-0.695-10.869-0.014-16.047c1.764-13.411-0.041-26.365-2.9-39.335
	c-0.477-2.158-1.9-4.028-1.848-6.379c2.42,3.5,4.809,6.975,7.68,10.087c0.27,0.293,0.371,0.798,0.43,1.221
	c0.639,4.54,1.563,9.063,2.006,13.601c0.924,9.393,3.928,18.458,4.145,27.938c0.023,1.053,0.146,2.126,0.402,3.146
	c2.059,8.21,4.082,16.432,6.291,24.603c0.738,2.732,1.295,5.483,1.824,8.253c0.164,0.87,0.527,1.755,1.65,1.781
	c1.057,0.024,1.588-0.7,1.891-1.577c0.49-1.424,0.742-2.885,0.752-4.412c0.035-4.927,0.104-9.873,0.318-14.772
	c0.402-9.159-0.658-18.103-2.389-27.011c-0.617-3.187-1.793-6.264-2.715-9.39c0.207,0,0.412,0,0.619,0
	c3.26,6.158,6.645,12.278,8.926,18.874c1.654,4.78,3.666,9.406,6.197,13.714c4.945,8.415,9.6,17.069,16.285,24.317
	c2.682,2.906,5.549,5.644,8.393,8.393c0.59,0.57,1.42,1.301,2.336,0.563c0.869-0.701,0.383-1.62,0.096-2.443
	c-0.174-0.5-0.412-0.975-0.629-1.459c-3.723-8.379-7.621-16.686-11.131-25.154c-4.992-12.045-12.41-22.268-22.064-30.966
	c-1.211-1.092-2.598-2.155-3.297-3.725c-2.422-5.422-5.855-10.257-8.824-15.359c0.178-0.177,0.357-0.355,0.537-0.533
	c3.945,4.621,8.049,9.035,13.016,12.654c3.201,2.33,6.389,4.665,9.68,6.868c7.727,5.172,15.92,9.414,24.664,12.58
	c0.762,0.275,1.652,0.516,2.162-0.297C460.528,93.114,459.879,92.412,459.258,91.925z"/>
<g>
	<path fill="#1FA267" d="M120.043,151.148c-11.681-1.777-23.467-2.337-35.238-3.149c-6.043-0.418-12.176-0.535-18.072-2.172
		c-7.579-2.102-14.738-5.398-22.126-8.049c-0.87-0.312-2.054-0.535-1.839-1.862c0.223-1.394,1.442-1.354,2.493-1.426
		c8.259-0.56,16.514-1.225,24.78-1.624c9.557-0.463,18.938,0.908,28.317,2.745c7.649,1.499,15.19,3.124,22.251,6.524
		c0.204-0.207,0.408-0.414,0.612-0.621h0.001l0,0c-3.555-4.426-7.767-7.67-13.767-7.79c-1.145-0.023-2.295-0.142-3.427-0.323
		c-15.67-2.505-31.313-5.194-47.018-7.477c-7.983-1.161-15.589-3.799-23.482-5.238c-1.006-0.183-2.017-0.57-1.863-1.809
		c0.154-1.244,1.27-1.328,2.266-1.325c1.411,0.004,2.854-0.101,4.228,0.148c5.36,0.97,10.872,0.644,16.048-0.063
		c13.401-1.827,26.364-0.083,39.348,2.714c2.161,0.465,4.037,1.881,6.389,1.816c-3.51-2.401-6.997-4.775-10.123-7.631
		c-0.295-0.269-0.799-0.367-1.224-0.425c-4.542-0.618-9.07-1.517-13.61-1.94c-9.396-0.877-18.476-3.839-27.958-4.012
		c-1.053-0.02-2.128-0.138-3.147-0.389c-8.22-2.02-16.451-4.004-24.633-6.174c-2.735-0.725-5.487-1.27-8.261-1.784
		c-0.87-0.161-1.758-0.52-1.789-1.644c-0.028-1.055,0.693-1.589,1.569-1.896c1.421-0.497,2.879-0.757,4.408-0.774
		c4.926-0.058,9.872-0.15,14.771-0.389c9.156-0.445,18.104,0.573,27.02,2.261c3.19,0.604,6.273,1.764,9.404,2.671
		c-0.001-0.207-0.002-0.414-0.004-0.621c-6.173-3.229-12.309-6.584-18.916-8.836c-4.788-1.631-9.424-3.62-13.743-6.131
		c-8.438-4.904-17.114-9.519-24.395-16.171c-2.919-2.667-5.669-5.52-8.433-8.351c-0.572-0.586-1.308-1.416-0.572-2.334
		c0.696-0.872,1.617-0.391,2.441-0.107c0.5,0.171,0.979,0.409,1.463,0.623c8.396,3.683,16.721,7.541,25.205,11.01
		c12.07,4.935,22.327,12.306,31.072,21.918c1.097,1.207,2.167,2.586,3.74,3.281c5.433,2.394,10.285,5.804,15.398,8.751
		c0.178-0.181,0.355-0.361,0.532-0.542c-4.64-3.924-9.073-8.006-12.715-12.956c-2.347-3.188-4.696-6.366-6.915-9.646
		c-5.208-7.703-9.489-15.875-12.697-24.604c-0.277-0.759-0.522-1.648,0.288-2.163c0.838-0.533,1.542,0.111,2.033,0.731
		c1.976,2.5,4.448,4.427,6.836,6.511c8.6,7.508,15.77,16.27,21.888,25.936c4.267,6.741,8.207,13.567,9.939,21.462
		c0.383,1.75,1.666,2.9,3.176,3.722c4.01,2.182,6.938,5.667,10.352,8.56c3.49,2.955,6.801,6.123,10.191,9.197
		c0.193-0.168,0.389-0.336,0.584-0.505c-2.789-4.551-5.281-9.319-8.431-13.604c-5.538-7.531-11.183-14.996-16.038-22.977
		c-2.865-4.709-5.529-9.622-7.053-15.014c0-0.001,0-0.001-0.002-0.003c-1.369-2.463-2.852-4.85-4.391-7.213
		c-0.73-1.122-2.177-2.752-0.77-4.019c1.154-1.039,2.304,0.697,3.474,1.155c0.114,0.104,0.231,0.206,0.349,0.31
		c1.875,1.666,3.857,3.189,6.076,4.389c0.436,0.408,1.195,0.484,1.806,0.714c0.491,0.186,0.885,0.472,0.931,1.112
		c0.091-0.011,0.182-0.022,0.271-0.039c0.625,0.115,1.135,0.447,1.623,0.836c7.58,6.006,13.458,13.442,17.449,22.176
		c5.234,11.448,9.695,23.229,12.453,35.551c0.715,3.189,2.125,5.761,4.449,7.849c1.663,1.494,3.028,3.133,3.938,5.054
		c-0.256-2.091-0.378-4.191-0.221-6.314c0.088-1.183,0.511-2.29,0.73-3.446c-2.22-3.416-3.498-7.096-4.424-10.928
		c-1.906-7.88-3.842-15.753-5.839-23.61c-1.257-4.948-2.259-9.962-3.854-14.829c-0.32-0.978-0.613-2.501,0.763-3.038
		c1.458-0.569,2.139,0.666,2.847,1.745c3.868,5.885,7.235,12.043,10.302,18.37c0.314,0.649,0.631,1.301,0.939,1.954
		c0,2.104,0.002,4.206,0.003,6.309v0.002c0.409,12.216-0.038,24.426-0.293,36.636v-0.001v0.002c0.016,0.137,0.05,0.271,0.087,0.402
		c0.01,0.033,0.012,0.067,0.021,0.1c-0.01,1.235-0.099,2.477-0.016,3.705c0.127,1.863-0.59,2.118-2.165,1.415
		C125.553,152.372,122.834,151.573,120.043,151.148z"/>
	<path fill="#9BCB93" d="M119.839,166.416c-0.063,0.001-0.124,0.001-0.188,0.001c-6.902-3.137-14.127-5.445-21.164-8.236
		c-2.803-1.111-5.627-2.171-8.441-3.254c2.229-0.621,4.371-1.149,6.417-0.891c6.989,0.887,14.077-0.254,21.041,1.26
		c4.431,0.965,9.198,0.502,13.163,3.313v0.001c0.002,0.067,0.004,0.135,0.005,0.203c0.065,2.519,0.13,5.037,0.196,7.557
		c-0.156,0.001-0.313,0.002-0.47,0.002C126.878,166.387,123.358,166.401,119.839,166.416z"/>
</g>
<g>
	<path fill="#FFFFFF" d="M384.194,155.623c0,0,4.111,1.988,13.521-8.882c0,0,2.254,21.077,18.16,15.775
		c0,0,12.328-6.363,2.785-18.824l-3.316-3.578c0,0,17.896,4.572,18.426-8.617c0,0,0.266-15.906-19.486-12.129
		c0,0,12.395-18.426-4.043-22.667c0,0-15.375-3.248-14.646,17.497c0,0-6.164-7.356-11.4-8.483
		C378.958,104.588,384.194,155.623,384.194,155.623z"/>
	<path fill="#F6E36B" d="M397.549,122.417c0,0-1.324,0.166-3.713-0.299c0,0-4.24,1.326-1.82,4.242c0,0,0.629,2.494-0.332,3.584
		c0,0-3.578,1.686-1.656,4.403c0,0,1.457,3.049,5.203,1.325c0,0,2.549-0.662,3.775,0.795c0,0,1.494,2.851,4.012,2.752
		c0.031-0.199,1.953,0.463,1.723-4.408c0.299-0.498,0.73-2.088,2.387-2.287c0,0,5.07-1.59,1.061-5.699c0,0-4.34-1.393-3.813-5.038
		c0,0,0.83-2.12-2.219-2.948c0,0-1.99-0.598-3.215,1.689C398.942,120.528,398.114,122.389,397.549,122.417z"/>
	<path fill="#F6B034" d="M398.975,125.997c0,0-4.408,1.159-1.293,4.175c0,0,1.758,2.884,4.971,1.425c0,0,1.723-1.458-0.465-3.877
		C402.188,127.719,400.5,126.029,398.975,125.997z"/>
</g>
<g>
	<path fill="#FFFFFF" d="M92.741,39.192c0,0-6.098,3.712-7.335,5.303c0,0,3.004-20.679-12.725-19.972c0,0-13.61,3.27-11.666,14.228
		c0,0,0.707,6.628,4.595,10.958c0,0-15.2-6.274-20.855,2.033c0,0-6.893,8.483,1.148,15.553c0,0,4.419,5.126,15.466,4.419
		c0,0-3.624,6.274-2.74,15.023c0,0,6.01,16.967,20.414,6.716c0,0,4.596-3.27,3.977-14.316l0.795-1.236c0,0,6.895,6.849,8.927,7.71
		V39.192z"/>
	<path fill="#F6E36B" d="M71.973,55.873v-2.32c0,0-0.198-3.181,2.652-3.115c0,0,2.386-1.193,3.711,2.717l0.729,0.928
		c0,0,1.988,0.266,4.507,0.53c0,0,4.771-0.464,3.977,3.977c0,0-1.324,3.115-2.452,4.109c0,0,0,1.922,1.128,2.784
		c0,0,2.451,3.513-1.857,4.44l-5.037-1.59c0,0-3.182,3.247-5.435,3.711c0,0-5.567,0.266-3.978-4.771l0.598-2.386
		c0,0-0.108-1.326-0.883-1.723c0,0-5.68-1.922-0.377-5.7C69.256,57.463,71.046,57.596,71.973,55.873z"/>
	<path fill="#F6B034" d="M73.829,60.625c0,0-0.582,2.937,3.485,2.937c0,0,4.27,0.494,4.535-2.404c0,0,0.396-2.235-3.713-2.633
		C78.137,58.524,74.426,58.086,73.829,60.625z"/>
</g>
<g>
	<rect x="92.741" fill="#F7C56E" width="291.009" height="171.22"/>
	<path fill="#F39E61" d="M320.122,0c0,0,6.451,4.904,4.24,8.793c0,0-1.061,2.209-5.479-0.973c0,0-5.658-4.805-7.246-7.82h-11.885
		c0,0-9.766,8.837-11.977,13.83c0,0,9.943-5.479,22.316,0c0,0,10.338,3.491,11.752,8.042c0,0,1.238,7.379-7.953,5.258
		c0,0-3.666-0.486-7.777-6.496c0,0-8.66-12.725-19.572-4.021c0,0-4.023,3.756-7.115,17.895c0,0,11.002-8.219,20.545-3.093
		c0,0,7.689,3.27,3.713,7.688c0,0-4.152,2.298-12.416-2.386c0,0-10.031-4.507-12.371,0.53c0,0-1.395,16.834,0.529,22.402
		c0,0,6.031-7.423,10.205-7.489c0,0,5.17,0.265,1.594,4.242c0,0-1.129,1.524-4.906,2.652c0,0-5.834,1.922-6.164,4.771
		c0,0,0.465,4.772,1.988,8.417c0,0,2.584,9.412,4.971,13.124c0,0,13.787,0.662,24.523-2.52c0,0,2.055,0.331,1.59-10.272
		c0,0-1.258-8.484,3.979-7.755c0,0,5.234,0.199,4.043,8.882c0,0-1.195,5.301-4.971,9.477c0,0,27.77-0.198,32.543-4.572
		c0,0,1.656-4.971-4.043-13.322c0,0-5.238-7.888-8.287-10.87c0,0-1.59-4.043,2.586-1.988c0,0,11.598,10.406,10.805,25.849
		c0,0,14.117-4.572,15.705-13.918c0,0-0.662-7.622-8.613-12.46c0,0-11.334-8.55-12.529-9.478c0,0-1.191-2.121,0.199-4.639
		c0,0,2.123-1.657,5.369,0.133c0,0,8.947,0.927,16.9,26.843c0,0,13.125-16.769,1.459-33.869c0,0-4.563-5.7-16.863-8.086
		c0,0-1.354-2.916,0-5.833c0,0,5.861-11.135,3.209-16.967H320.122z"/>
	<path fill="#F39E61" d="M195.518,128.058c12.9-4.985,13.608-13.44,13.608-13.44c2.827-10.295-2.297-24.876-2.297-24.876
		c-9.191-3.536-26.159-0.354-26.159-0.354c-3.357,0.531-4.417,2.652-4.417,2.652c-3.182,1.413-1.592,11.311-1.592,11.311
		c-0.353,4.773-3.535,4.596-3.535,4.596c-4.064,0.53-4.595-3.889-4.595-3.889c0.884-6.186-2.475-15.994-2.475-15.994
		c-4.242-3.094-13.609,3.799-13.609,3.799c-6.717,3.889-5.656,9.479-5.656,9.479l2.475,11.023c-0.177,6.01-4.242,5.127-4.242,5.127
		c-4.418,0.353-3.534-7.07-3.534-7.07l-1.061-11.842c-0.707-4.772-3.889-4.418-3.889-4.418c-5.479,1.236-11.311,9.014-11.311,9.014
		c-4.95,6.362-3.359,14.669-3.359,14.669c0.708,3.182,4.42,11.843,4.42,11.843c1.413,8.66-4.597,8.66-4.597,8.66
		c-4.242,0.53-3.534-8.484-3.534-8.484c0.53-12.371-1.237-14.241-1.237-14.241c-27.926,29.944,1.237,55.6,1.237,55.6h76.839
		c4.374-2.96,4.904-12.019,4.904-12.019c0.663-5.303-3.049-4.109-3.049-4.109c-4.639-0.266-12.857,1.061-12.857,1.061
		c-12.858,0-10.604-7.557-10.604-7.557c3.71-5.036,12.989-1.191,12.989-1.191c9.942,1.987,16.306-1.459,16.306-1.459
		c7.158-4.904,5.302-11.135,5.302-11.135c-2.519-6.496-8.527-2.298-8.527-2.298c-0.972,1.237-2.475,1.503-2.475,1.503
		C188.447,131.895,195.518,128.058,195.518,128.058z M129.9,152.442c0,0-3.446-1.326-3.446-5.303s2.651-4.346,2.651-4.346
		s2.253,0.369,2.783,4.824C132.418,152.073,129.9,152.442,129.9,152.442z M143.422,141.704c-3.978,3.447-5.17-2.386-5.17-2.386
		c-0.663-4.905,3.313-6.495,3.313-6.495c1.988-0.397,2.784,0.662,2.784,0.662C147.398,137.594,143.422,141.704,143.422,141.704z
		 M155.285,162.25c-1.72,0-3.115-1.395-3.115-3.115s1.396-3.115,3.115-3.115c1.721,0,3.115,1.395,3.115,3.115
		S157.006,162.25,155.285,162.25z M157.87,127.786c-5.7,3.313-6.229-1.591-6.229-1.591c-1.061-6.761,4.76-8.219,4.76-8.219
		c4.098-0.265,3.723,3.313,3.723,3.313C160.389,125.532,157.87,127.786,157.87,127.786z"/>
	<g>
		<path fill="#FFFFFF" d="M183.644,138.749l-0.766,0.739c-0.318-0.181-0.681-0.459-1.086-0.834
			c-0.406-0.375-0.717-0.756-0.933-1.141c-0.192,0.469-0.485,0.932-0.879,1.389s-0.759,0.781-1.095,0.973l-0.82-0.676
			c0.637-0.408,1.157-0.957,1.56-1.645c0.402-0.688,0.604-1.339,0.604-1.951v-0.271h1.208v0.253c0,0.541,0.202,1.099,0.604,1.672
			C182.442,137.831,182.977,138.328,183.644,138.749z M186.042,141.867c0,0.35-0.087,0.644-0.262,0.884s-0.428,0.427-0.761,0.56
			c-0.334,0.131-0.705,0.225-1.113,0.279c-0.409,0.054-0.887,0.08-1.434,0.08c-2.386,0-3.578-0.601-3.578-1.803
			c0-1.219,1.192-1.829,3.578-1.829c0.541,0,1.017,0.028,1.429,0.085c0.412,0.058,0.784,0.152,1.118,0.284
			c0.333,0.132,0.587,0.32,0.761,0.563C185.954,141.214,186.042,141.513,186.042,141.867z M184.275,142.516
			c0.348-0.132,0.522-0.352,0.522-0.657c0-0.307-0.174-0.527-0.522-0.663c-0.349-0.136-0.95-0.203-1.803-0.203
			c-0.859,0-1.463,0.067-1.812,0.203c-0.349,0.136-0.523,0.356-0.523,0.663c0,0.306,0.174,0.525,0.523,0.657
			c0.348,0.132,0.952,0.198,1.812,0.198C183.325,142.714,183.926,142.648,184.275,142.516z M185.888,135.341v1.604h0.928v1.019
			h-0.928v1.856h-1.19v-4.479H185.888z"/>
		<path fill="#FFFFFF" d="M195.028,139.217v0.955h-3.407v0.667h2.938v2.659h-7.076v-2.659h2.948v-0.667h-3.417v-0.955H195.028z
			 M194.74,137.775v0.965h-7.437v-0.965h1.199l-0.108-1.424h-0.992v-0.965h7.238v0.965h-0.982l-0.108,1.424H194.74z
			 M188.673,141.794v0.749h4.696v-0.749H188.673z M189.584,136.351l0.099,1.424h2.677l0.099-1.424H189.584z"/>
		<path fill="#FFFFFF" d="M199.49,137.162l0.162,5.049h0.748l0.162-5.049h1.172l-0.162,5.049h0.901v0.982h-4.723v-0.982h0.73
			l-0.162-5.049H199.49z M202.14,135.521v0.982h-4.209v-0.982H202.14z M204.123,135.386v8.067h-1.19v-3.84h-0.955v-0.991h0.955
			v-3.236H204.123z M206.034,135.341v8.157h-1.19v-8.157H206.034z"/>
		<path fill="#FFFFFF" d="M209.45,135.242c0.396,0,0.75,0.078,1.059,0.234s0.559,0.361,0.748,0.613s0.346,0.556,0.469,0.91
			c0.123,0.355,0.208,0.711,0.252,1.068s0.067,0.74,0.067,1.149c0,0.402-0.022,0.784-0.067,1.145s-0.129,0.72-0.252,1.077
			s-0.279,0.664-0.469,0.92c-0.189,0.255-0.438,0.463-0.748,0.621c-0.31,0.16-0.663,0.239-1.059,0.239
			c-0.397,0-0.75-0.078-1.059-0.234c-0.31-0.156-0.561-0.36-0.753-0.612c-0.192-0.253-0.349-0.559-0.469-0.916
			s-0.204-0.717-0.252-1.081c-0.048-0.364-0.072-0.749-0.072-1.158c0-0.517,0.041-0.996,0.122-1.438
			c0.081-0.441,0.215-0.86,0.401-1.257c0.187-0.396,0.457-0.709,0.812-0.938C208.534,135.356,208.957,135.242,209.45,135.242z
			 M209.441,136.215c-0.282,0-0.521,0.092-0.716,0.274c-0.195,0.184-0.34,0.434-0.433,0.749c-0.093,0.315-0.16,0.632-0.199,0.95
			c-0.039,0.319-0.059,0.662-0.059,1.028c0,0.294,0.011,0.569,0.032,0.825c0.021,0.255,0.063,0.521,0.126,0.802
			c0.063,0.279,0.145,0.519,0.244,0.716c0.099,0.199,0.234,0.363,0.406,0.492c0.171,0.129,0.371,0.193,0.599,0.193
			c0.283,0,0.521-0.094,0.717-0.279s0.341-0.438,0.437-0.752c0.096-0.316,0.164-0.635,0.203-0.956
			c0.039-0.321,0.059-0.669,0.059-1.041c0-0.366-0.02-0.709-0.059-1.028c-0.04-0.318-0.107-0.635-0.203-0.95
			s-0.243-0.565-0.441-0.749C209.955,136.307,209.717,136.215,209.441,136.215z M214.417,135.341v8.157h-1.189v-8.157H214.417z"/>
		<path fill="#FFFFFF" d="M220.745,142.335l-0.793,0.668c-0.355-0.277-0.747-0.705-1.176-1.285c-0.43-0.58-0.735-1.128-0.915-1.645
			c-0.126,0.535-0.394,1.117-0.802,1.748s-0.788,1.094-1.136,1.389l-0.865-0.641c0.727-0.637,1.268-1.432,1.623-2.384
			c0.354-0.952,0.532-1.903,0.532-2.853v-0.83h-1.749v-0.982h5.021v0.982h-2.082v0.884c0,0.8,0.21,1.666,0.631,2.601
			C219.453,140.922,220.023,141.705,220.745,142.335z M222.98,135.341v8.157h-1.189v-8.157H222.98z"/>
		<path fill="#FFFFFF" d="M229.948,135.386v8.067h-1.19v-3.813h-0.847c-0.012,0.506-0.051,0.955-0.117,1.348
			c-0.066,0.395-0.171,0.768-0.315,1.123c-0.145,0.354-0.353,0.627-0.626,0.82c-0.273,0.191-0.603,0.288-0.987,0.288
			c-0.415,0-0.765-0.11-1.05-0.329c-0.286-0.219-0.499-0.53-0.64-0.933c-0.141-0.403-0.239-0.82-0.293-1.253
			s-0.081-0.929-0.081-1.487c0-0.438,0.015-0.835,0.045-1.19c0.03-0.354,0.09-0.71,0.18-1.068c0.09-0.357,0.209-0.657,0.356-0.9
			c0.147-0.244,0.347-0.44,0.599-0.591c0.252-0.149,0.547-0.226,0.883-0.226c0.379,0,0.702,0.09,0.969,0.271
			c0.267,0.181,0.475,0.437,0.622,0.767c0.147,0.33,0.255,0.682,0.324,1.055c0.069,0.373,0.113,0.802,0.131,1.289h0.847v-3.236
			H229.948z M226.27,136.414c-0.114-0.132-0.252-0.198-0.415-0.198s-0.301,0.066-0.415,0.198c-0.114,0.133-0.202,0.29-0.262,0.474
			c-0.06,0.183-0.106,0.423-0.14,0.721s-0.054,0.561-0.063,0.789s-0.014,0.501-0.014,0.82c0,0.324,0.005,0.603,0.014,0.833
			c0.009,0.232,0.03,0.496,0.063,0.794s0.08,0.54,0.14,0.726s0.147,0.346,0.262,0.478c0.114,0.132,0.252,0.198,0.415,0.198
			c0.198,0,0.362-0.09,0.491-0.27c0.129-0.182,0.221-0.438,0.275-0.771s0.09-0.646,0.108-0.938c0.018-0.291,0.027-0.641,0.027-1.05
			c0-0.313-0.004-0.586-0.014-0.82c-0.009-0.234-0.03-0.497-0.063-0.789c-0.033-0.291-0.081-0.53-0.144-0.716
			C226.473,136.706,226.384,136.546,226.27,136.414z M231.904,135.341v8.157h-1.19v-8.157H231.904z"/>
		<path fill="#FFFFFF" d="M237.925,142.318l-0.793,0.686c-0.355-0.271-0.736-0.693-1.146-1.268
			c-0.408-0.573-0.706-1.125-0.892-1.653c-0.127,0.534-0.393,1.116-0.798,1.744c-0.406,0.628-0.783,1.089-1.132,1.384l-0.865-0.641
			c0.715-0.637,1.245-1.432,1.591-2.384s0.519-1.903,0.519-2.853v-1.911h1.217v1.965c0,0.794,0.206,1.654,0.617,2.583
			C236.655,140.898,237.216,141.681,237.925,142.318z M240.331,135.341v8.157h-1.189v-4.39h-2.137v-0.982h2.137v-2.785H240.331z"/>
		<path fill="#FFFFFF" d="M243.883,143.193v-7.672h4.696v0.982h-3.506v5.707h3.876v0.982H243.883z M250.968,135.341v3.209h1.019
			v1.019h-1.019v3.93h-1.189v-8.157H250.968z"/>
		<path fill="#FFFFFF" d="M256.53,141.84h-1.189v-1.542h-3.507v-0.982h8.013v0.982h-3.316V141.84z M259.512,136.927
			c0,1.232-1.223,1.848-3.668,1.848c-0.529,0-1.006-0.031-1.434-0.094c-0.426-0.063-0.813-0.164-1.158-0.303
			c-0.346-0.138-0.613-0.33-0.803-0.576c-0.188-0.246-0.283-0.538-0.283-0.875c0-0.342,0.095-0.637,0.283-0.883
			c0.189-0.246,0.457-0.44,0.803-0.582c0.345-0.141,0.732-0.243,1.158-0.307c0.428-0.063,0.904-0.094,1.434-0.094
			C258.29,135.062,259.512,135.683,259.512,136.927z M252.392,143.409v-2.353h1.236v1.37h5.885v0.982H252.392z M257.702,137.595
			c0.414-0.139,0.621-0.364,0.621-0.677s-0.207-0.538-0.621-0.676s-1.033-0.208-1.857-0.208c-0.822,0-1.443,0.07-1.861,0.208
			s-0.626,0.363-0.626,0.676c0,0.319,0.207,0.546,0.623,0.681c0.414,0.135,1.035,0.203,1.865,0.203
			C256.668,137.802,257.288,137.733,257.702,137.595z"/>
		<path fill="#FFFFFF" d="M267.092,135.431v4.092h-4.885v-4.092h1.189v1.064h2.506v-1.064H267.092z M262.577,143.499v-3.137h6.986
			v0.982h-5.797v1.172h5.896v0.982H262.577z M263.397,138.568h2.506v-1.117h-2.506V138.568z M269.563,135.341v1.559h0.928v1.02
			h-0.928v1.812h-1.189v-4.39H269.563z"/>
		<path fill="#FFFFFF" d="M278.262,142.255v0.982h-7.834v-0.982H278.262z M277.981,137.811c0,0.45-0.102,0.852-0.305,1.203
			c-0.205,0.352-0.482,0.632-0.83,0.839s-0.732,0.361-1.154,0.464c-0.42,0.103-0.867,0.153-1.342,0.153
			c-0.645,0-1.234-0.092-1.771-0.275c-0.539-0.184-0.984-0.48-1.34-0.893c-0.354-0.411-0.531-0.908-0.531-1.491
			c0-0.577,0.178-1.071,0.531-1.483c0.355-0.411,0.801-0.709,1.334-0.893c0.535-0.183,1.127-0.274,1.777-0.274
			c0.371,0,0.73,0.033,1.076,0.099c0.346,0.066,0.674,0.172,0.986,0.316s0.586,0.316,0.816,0.518
			c0.232,0.202,0.414,0.451,0.551,0.748C277.915,137.139,277.981,137.462,277.981,137.811z M276.764,137.811
			c0-0.253-0.053-0.479-0.162-0.681c-0.107-0.201-0.246-0.361-0.414-0.482c-0.168-0.12-0.363-0.219-0.586-0.297
			s-0.436-0.133-0.641-0.162c-0.203-0.031-0.408-0.045-0.611-0.045c-0.26,0-0.518,0.025-0.775,0.076
			c-0.26,0.051-0.518,0.135-0.775,0.252c-0.26,0.117-0.469,0.291-0.631,0.523c-0.162,0.23-0.244,0.503-0.244,0.815
			c0,0.318,0.08,0.593,0.238,0.825c0.16,0.23,0.369,0.405,0.627,0.522s0.518,0.201,0.775,0.253c0.258,0.051,0.52,0.076,0.785,0.076
			c0.258,0,0.516-0.025,0.773-0.076c0.26-0.052,0.518-0.136,0.775-0.253c0.26-0.117,0.469-0.292,0.627-0.522
			C276.686,138.404,276.764,138.129,276.764,137.811z"/>
		<path fill="#FFFFFF" d="M282.75,142.453l-0.883,0.541c-0.229-0.27-0.484-0.672-0.766-1.203c-0.283-0.531-0.508-1.051-0.678-1.555
			c-0.125,0.492-0.332,1.033-0.617,1.623c-0.285,0.588-0.545,1.021-0.779,1.297l-0.928-0.486c0.547-0.691,0.965-1.513,1.258-2.465
			c0.291-0.953,0.436-1.88,0.436-2.781v-2.001h1.182v2.001c0,0.775,0.162,1.63,0.486,2.564S282.215,141.744,282.75,142.453z
			 M284.545,135.386v8.067h-1.191v-4.272h-1.486v-0.982h1.486v-2.813H284.545z M286.573,135.341v8.157h-1.189v-8.157H286.573z"/>
		<path fill="#FFFFFF" d="M294.776,142.255v0.982h-7.834v-0.982h1.488v-1.74h1.189v1.74h2.486v-1.74h1.191v1.74H294.776z
			 M294.514,137.658c0,0.433-0.105,0.816-0.316,1.149s-0.492,0.595-0.848,0.784c-0.354,0.189-0.742,0.332-1.162,0.428
			c-0.42,0.097-0.863,0.145-1.324,0.145c-0.469,0-0.916-0.051-1.34-0.153s-0.811-0.251-1.162-0.446s-0.633-0.457-0.844-0.784
			c-0.209-0.327-0.314-0.701-0.314-1.122c0-0.414,0.104-0.785,0.311-1.113s0.486-0.59,0.838-0.789
			c0.352-0.197,0.74-0.347,1.168-0.445c0.426-0.1,0.875-0.149,1.344-0.149c0.625,0,1.203,0.085,1.738,0.253s0.988,0.447,1.357,0.838
			S294.514,137.111,294.514,137.658z M293.297,137.658c0-0.301-0.08-0.556-0.24-0.766c-0.158-0.211-0.371-0.365-0.639-0.465
			s-0.527-0.17-0.775-0.212c-0.25-0.042-0.51-0.063-0.779-0.063c-0.271,0-0.533,0.021-0.785,0.063s-0.51,0.112-0.775,0.212
			c-0.264,0.1-0.477,0.254-0.641,0.465c-0.162,0.21-0.242,0.465-0.242,0.766c0,0.246,0.055,0.463,0.166,0.648
			c0.111,0.188,0.25,0.334,0.416,0.442c0.164,0.108,0.363,0.195,0.594,0.261c0.232,0.066,0.447,0.11,0.645,0.131
			c0.199,0.021,0.406,0.031,0.623,0.031c0.209,0,0.414-0.01,0.611-0.031c0.199-0.021,0.412-0.064,0.641-0.131
			c0.229-0.065,0.428-0.152,0.596-0.261s0.307-0.255,0.418-0.442C293.241,138.121,293.297,137.904,293.297,137.658z"/>
		<path fill="#FFFFFF" d="M296.442,141.939v1.344h-1.324v-1.344H296.442z"/>
	</g>
	<g>
		<path fill="#FFFFFF" d="M221.857,45.547l-1.487,1.417c-0.595-0.326-1.297-0.875-2.108-1.645c-0.811-0.77-1.415-1.476-1.811-2.117
			c-0.42,0.863-1.038,1.714-1.854,2.554c-0.817,0.84-1.534,1.429-2.152,1.768l-1.575-1.295c1.213-0.676,2.237-1.633,3.071-2.87
			c0.834-1.236,1.251-2.397,1.251-3.482v-0.123h-3.622v-1.907h9.957v1.907h-3.99v0.158c0,0.921,0.417,1.904,1.251,2.948
			S220.645,44.801,221.857,45.547z M212.671,53.334v-5.127h2.397v3.22h11.776v1.907H212.671z M226.582,37.674V48.68h-2.31v-5.599
			h-3.447v-1.907h3.447v-3.5H226.582z"/>
		<path fill="#FFFFFF" d="M238.234,44.288l-1.486,1.435c-0.619-0.35-1.32-0.89-2.109-1.619c-0.787-0.729-1.391-1.467-1.811-2.213
			c-0.373,0.91-0.941,1.808-1.706,2.695c-0.764,0.886-1.473,1.516-2.126,1.89l-1.592-1.313c1.236-0.793,2.246-1.857,3.027-3.193
			c0.782-1.335,1.172-2.598,1.172-3.788v-0.525h2.346v0.49c0,1.05,0.391,2.132,1.172,3.246
			C235.902,42.506,236.939,43.471,238.234,44.288z M242.889,50.342c0,0.677-0.168,1.248-0.506,1.715
			c-0.34,0.466-0.832,0.828-1.479,1.085c-0.648,0.256-1.369,0.438-2.162,0.542s-1.721,0.157-2.781,0.157
			c-4.631,0-6.947-1.167-6.947-3.5c0-2.368,2.315-3.552,6.947-3.552c1.049,0,1.975,0.055,2.773,0.166
			c0.799,0.111,1.521,0.295,2.17,0.551c0.646,0.257,1.139,0.621,1.479,1.094C242.721,49.073,242.889,49.654,242.889,50.342z
			 M239.461,51.602c0.676-0.256,1.014-0.682,1.014-1.277c0-0.595-0.338-1.023-1.014-1.286c-0.678-0.263-1.844-0.394-3.5-0.394
			c-1.668,0-2.842,0.131-3.518,0.394c-0.676,0.262-1.015,0.691-1.015,1.286c0,0.595,0.338,1.021,1.015,1.277
			c0.676,0.257,1.85,0.385,3.518,0.385C237.617,51.987,238.783,51.858,239.461,51.602z M242.592,37.674v3.114h1.803v1.978h-1.803
			v3.604h-2.309v-8.696H242.592z"/>
		<path fill="#FFFFFF" d="M260.334,45.198v1.854h-6.613v1.295h5.703v5.162h-13.736v-5.162h5.722v-1.295h-6.631v-1.854H260.334z
			 M259.774,42.398v1.872h-14.435v-1.872h2.327l-0.21-2.765h-1.925v-1.872h14.051v1.872h-1.908l-0.209,2.765H259.774z
			 M247.999,50.202v1.452h9.117v-1.452H247.999z M249.766,39.633l0.192,2.765h5.197l0.193-2.765H249.766z"/>
	</g>
	<g>
		<path fill="#FFFFFF" d="M189.242,86.56c0,0,0.001,10.428-7.688,10.428c-2.916,0-4.843-1.124-6.009-1.591
			c-1.226-0.408-2.902-2.563-4.419-2.563c-2.683,0-2.916,3.711-2.916,3.711l-6.363-0.088c0,0,0.372-10.317,7.954-10.317
			c2.916,0,4.008,0.45,5.174,0.917c1.107,0.408,3.849,3.126,5.132,3.126c2.624,0,2.948-3.679,2.948-3.679L189.242,86.56z"/>
		<path fill="#FFFFFF" d="M226.359,100.258v9.5L193.5,109.89l0.072-7.601c0,0,15.441-12.175,18.532-18.591
			c2.801-5.949-6.778-10.482-11.727-2.795l-8.749-4.771c2.1-4.375,8.534-8.537,17.32-8.59c13.432-0.081,19.6,9.791,14.934,18.598
			c-3.556,6.94-13.586,14.106-13.586,14.106L226.359,100.258z"/>
	</g>
	<path fill="#FFFFFF" d="M248.539,66.941c-10.443,0-18.911,9.674-18.911,21.607s8.468,21.606,18.911,21.606
		c10.446,0,18.911-9.673,18.911-21.606S258.985,66.941,248.539,66.941z M248.539,100.5c-3.709,0-6.716-5.352-6.716-11.952
		c0-6.602,3.007-11.952,6.716-11.952s6.717,5.351,6.717,11.952C255.256,95.149,252.248,100.5,248.539,100.5z"/>
	<path fill="#FFFFFF" d="M279.206,72.068c-5.32,0-9.633,4.629-9.633,10.338c0,5.711,4.313,10.341,9.633,10.341
		c5.318,0,9.631-4.63,9.631-10.341C288.836,76.697,284.524,72.068,279.206,72.068z M279.206,87.775
		c-1.795,0-3.248-2.403-3.248-5.369c0-2.964,1.453-5.367,3.248-5.367s3.248,2.403,3.248,5.367
		C282.454,85.372,281,87.775,279.206,87.775z"/>
	<path fill="#FFFFFF" d="M305.188,89.807c-5.322,0-9.635,4.629-9.635,10.34s4.313,10.34,9.635,10.34
		c5.318,0,9.631-4.629,9.631-10.34S310.506,89.807,305.188,89.807z M305.188,105.516c-1.795,0-3.248-2.404-3.248-5.369
		s1.453-5.368,3.248-5.368c1.791,0,3.246,2.403,3.246,5.368S306.979,105.516,305.188,105.516z"/>
	<polygon fill="#FFFFFF" points="300.856,72.774 308.192,72.774 283.567,109.692 276.178,109.692 	"/>
	<g>
		<path fill="#FFFFFF" d="M367.27,134.587h-6.309v-1.172h5.326v-1.334h0.982V134.587z"/>
		<path fill="#FFFFFF" d="M364.071,140.311c-0.324,0.306-0.73,0.46-1.217,0.46c-0.367,0-0.701-0.094-1-0.279
			c-0.301-0.188-0.541-0.468-0.717-0.844c-0.178-0.375-0.266-0.834-0.266-1.374c0-0.45,0.064-0.886,0.193-1.303
			s0.307-0.774,0.535-1.068l0.912,0.505c-0.193,0.229-0.346,0.506-0.457,0.834c-0.109,0.327-0.166,0.666-0.166,1.014
			c0,0.415,0.086,0.74,0.258,0.979c0.17,0.237,0.404,0.355,0.697,0.355c0.295,0,0.525-0.112,0.689-0.338
			c0.166-0.225,0.248-0.569,0.248-1.031v-0.578h0.803l1.703,1.434v-2.866h0.982v4.3h-0.783l-1.82-1.533
			C364.594,139.56,364.395,140.004,364.071,140.311z"/>
		<path fill="#FFFFFF" d="M361.254,143.267c0.254-0.396,0.627-0.709,1.117-0.938s1.07-0.342,1.744-0.342s1.254,0.113,1.744,0.342
			s0.863,0.541,1.117,0.938c0.256,0.396,0.383,0.848,0.383,1.353s-0.127,0.956-0.383,1.356c-0.254,0.399-0.627,0.713-1.117,0.941
			s-1.07,0.344-1.744,0.344s-1.254-0.115-1.744-0.344s-0.863-0.542-1.117-0.941c-0.256-0.4-0.383-0.852-0.383-1.356
			S360.999,143.664,361.254,143.267z M362.448,145.687c0.373,0.262,0.93,0.393,1.668,0.393s1.295-0.131,1.668-0.393
			c0.373-0.261,0.559-0.617,0.559-1.067c0-0.444-0.186-0.798-0.559-1.06s-0.93-0.392-1.668-0.392s-1.295,0.13-1.668,0.392
			s-0.559,0.615-0.559,1.06C361.889,145.07,362.075,145.426,362.448,145.687z"/>
		<path fill="#FFFFFF" d="M361.254,149.785c0.254-0.396,0.627-0.709,1.117-0.938s1.07-0.343,1.744-0.343s1.254,0.114,1.744,0.343
			s0.863,0.541,1.117,0.938c0.256,0.396,0.383,0.848,0.383,1.352c0,0.506-0.127,0.957-0.383,1.357
			c-0.254,0.398-0.627,0.713-1.117,0.941s-1.07,0.343-1.744,0.343s-1.254-0.114-1.744-0.343s-0.863-0.543-1.117-0.941
			c-0.256-0.4-0.383-0.852-0.383-1.357C360.872,150.632,360.999,150.181,361.254,149.785z M362.448,152.205
			c0.373,0.262,0.93,0.393,1.668,0.393s1.295-0.131,1.668-0.393s0.559-0.617,0.559-1.068c0-0.444-0.186-0.797-0.559-1.059
			s-0.93-0.393-1.668-0.393s-1.295,0.131-1.668,0.393s-0.559,0.614-0.559,1.059C361.889,151.587,362.075,151.943,362.448,152.205z"
			/>
		<path fill="#FFFFFF" d="M363.026,157.33l-0.795-0.839h-1.27v-1.126h6.688v1.126h-4.037l2.162,2.335v1.352l-2.02-2.01l-2.793,2.199
			v-1.37L363.026,157.33z"/>
	</g>
	<g>
		<path fill="#FFFFFF" d="M114.881,17.405h-6.31v-1.172h5.327v-1.334h0.982V17.405z"/>
		<path fill="#FFFFFF" d="M111.682,23.129c-0.325,0.306-0.73,0.459-1.217,0.459c-0.367,0-0.7-0.093-1-0.279
			c-0.301-0.187-0.54-0.467-0.717-0.843s-0.266-0.834-0.266-1.375c0-0.451,0.065-0.885,0.194-1.303
			c0.129-0.417,0.308-0.774,0.537-1.068l0.91,0.505c-0.192,0.229-0.344,0.506-0.455,0.834c-0.111,0.327-0.167,0.666-0.167,1.014
			c0,0.415,0.086,0.74,0.257,0.978c0.171,0.237,0.404,0.356,0.698,0.356s0.524-0.113,0.689-0.338
			c0.166-0.226,0.248-0.57,0.248-1.032V20.46h0.802l1.704,1.434v-2.867h0.982v4.3h-0.784l-1.821-1.533
			C112.205,22.377,112.006,22.822,111.682,23.129z"/>
		<path fill="#FFFFFF" d="M108.865,26.085c0.255-0.397,0.628-0.709,1.118-0.938c0.49-0.229,1.071-0.343,1.744-0.343
			s1.254,0.114,1.744,0.343c0.49,0.228,0.862,0.541,1.118,0.938c0.255,0.396,0.383,0.847,0.383,1.352s-0.128,0.957-0.383,1.356
			c-0.255,0.399-0.628,0.713-1.118,0.942s-1.071,0.343-1.744,0.343s-1.254-0.114-1.744-0.343s-0.862-0.542-1.118-0.942
			c-0.255-0.4-0.383-0.852-0.383-1.356S108.609,26.482,108.865,26.085z M110.059,28.505c0.373,0.262,0.928,0.392,1.667,0.392
			s1.295-0.13,1.667-0.392c0.373-0.261,0.559-0.617,0.559-1.068c0-0.445-0.187-0.798-0.559-1.059
			c-0.373-0.262-0.928-0.392-1.667-0.392s-1.295,0.13-1.667,0.392c-0.373,0.261-0.559,0.614-0.559,1.059
			C109.5,27.888,109.687,28.244,110.059,28.505z"/>
		<path fill="#FFFFFF" d="M108.865,32.603c0.255-0.397,0.628-0.709,1.118-0.938c0.49-0.229,1.071-0.343,1.744-0.343
			s1.254,0.114,1.744,0.343c0.49,0.228,0.862,0.541,1.118,0.938c0.255,0.396,0.383,0.847,0.383,1.352s-0.128,0.957-0.383,1.356
			c-0.255,0.399-0.628,0.713-1.118,0.942s-1.071,0.343-1.744,0.343s-1.254-0.114-1.744-0.343s-0.862-0.542-1.118-0.942
			c-0.255-0.4-0.383-0.852-0.383-1.356S108.609,32.999,108.865,32.603z M110.059,35.022c0.373,0.262,0.928,0.392,1.667,0.392
			s1.295-0.13,1.667-0.392c0.373-0.261,0.559-0.617,0.559-1.068c0-0.445-0.187-0.798-0.559-1.059
			c-0.373-0.262-0.928-0.392-1.667-0.392s-1.295,0.13-1.667,0.392c-0.373,0.261-0.559,0.614-0.559,1.059
			C109.5,34.405,109.687,34.761,110.059,35.022z"/>
		<path fill="#FFFFFF" d="M110.636,40.147l-0.793-0.838h-1.271v-1.126h6.688v1.126h-4.039l2.164,2.335v1.352l-2.019-2.01
			l-2.794,2.199v-1.37L110.636,40.147z"/>
	</g>
</g>
</svg>
