<?xml version="1.0" encoding="utf-8"?>
<!-- Generator: Adobe Illustrator 16.0.0, SVG Export Plug-In . SVG Version: 6.00 Build 0)  -->
<!DOCTYPE svg PUBLIC "-//W3C//DTD SVG 1.1//EN" "http://www.w3.org/Graphics/SVG/1.1/DTD/svg11.dtd">
<svg version="1.1" id="Layer_1" xmlns="http://www.w3.org/2000/svg" xmlns:xlink="http://www.w3.org/1999/xlink" x="0px" y="0px"
	 width="330.001px" height="330px" viewBox="0 0 330.001 330" enable-background="new 0 0 330.001 330" xml:space="preserve">
<g>
	<defs>
		<circle id="SVGID_1_" cx="165" cy="165" r="165"/>
	</defs>
	<clipPath id="SVGID_2_">
		<use xlink:href="#SVGID_1_"  overflow="visible"/>
	</clipPath>
	<g clip-path="url(#SVGID_2_)">
		<circle fill="#4C875F" cx="165" cy="164.938" r="165"/>
		<g>
			<path fill="#437B57" d="M243.301,83.385c0,0-11.089-2.56-14.161-1.024c0,0-5.63,1.706-10.237,1.024
				c0,0-18.255,0.512-18.938,4.777c0,0-2.388,3.753,6.996,4.777c0,0,14.842,1.194,19.279,0c0,0,5.118-0.303,7.166,0.531
				c0,0,7.678,0.151,12.795-1.043C246.2,92.427,253.879,87.479,243.301,83.385z"/>
			<path fill="#437B57" d="M280.438,105.451c0,0-4.372-3.589-11.83-2.161c0,0-8.873,0.114-10.01,3.868c0,0-3.639,4.094,7.167,5.915
				c0,0,9.099-1.024,12.056-0.569C277.821,112.503,286.353,111.138,280.438,105.451z"/>
			<path fill="#437B57" d="M323.093,87.673c0,0-3.641-4.288-12.058-4.971c0,0-5.688-0.455-8.872,1.251c0,0-6.029,2.388-7.963,2.161
				c0,0-8.984,4.437,0.911,6.711c0,0,8.188,1.138,11.715,0c0,0,6.257,0.165,9.214,0.651
				C316.04,93.476,324.911,93.896,323.093,87.673z"/>
		</g>
		<g>
			<g>
				<path fill="none" stroke="#53382F" stroke-width="3" stroke-miterlimit="10" d="M203.147,29.299
					c1.281-0.32,26.586-10.09,28.348-14.895c0,0-2.709,3.32-5.76,7.373c-3.749,4.979-8.018,11.063-8.414,13.448"/>
				<path fill="none" stroke="#53382F" stroke-width="3" stroke-miterlimit="10" d="M230.43,15.73c0,0,12.757,9.245,13.718,10.526"
					/>
				<path fill="none" stroke="#53382F" stroke-width="3" stroke-miterlimit="10" d="M225.735,21.777c0,0,6.4,25.78,9.283,29.463"/>
			</g>
			<g>
				<path fill="#C25739" d="M202.741,26.071c0,0-4.432-2.563-7.741,1.014c0,0-4.537,6.62,1.549,9.183c0,0,6.085,7.794,10.302-1.068
					C206.851,35.2,208.561,28.847,202.741,26.071z"/>
				<path fill="#C25739" d="M217.546,33.676c0,0-8.088-1.496-7.127,7.313c0,0,0.08,4.244,6.086,4.244s6.246-4.885,6.246-4.885
					S223.231,34.45,217.546,33.676z"/>
				<path fill="#C25739" d="M237.538,48.407c0,0-5.841-0.532-6.043,3.152c0,0-1.764,7.688,5.723,8.128c0,0,5.246,1.306,5.887-5.653
					C243.104,54.034,243.064,48.979,237.538,48.407z"/>
				<path fill="#C25739" d="M252.187,25.893c-4.764-4.805-8.688-0.881-8.688-0.881s-7.123,4.484-0.519,10.09
					s10.528-0.426,10.528-0.426S256.952,30.698,252.187,25.893z"/>
			</g>
		</g>
		<g>
			<g>
				<path fill="none" stroke="#53382F" stroke-width="3" stroke-miterlimit="10" d="M51.896,293.017c0,0,2.165-34.158,9.227-51.104"
					/>
				<path fill="none" stroke="#53382F" stroke-width="3" stroke-miterlimit="10" d="M70.356,246.531
					c-3.1,1.863-13.112,8.088-13.112,8.088s-4.236-5.871-5.29-10.211"/>
				<path fill="none" stroke="#53382F" stroke-width="3" stroke-miterlimit="10" d="M64.434,282.476l-12.446,9.231
					c0,0-7.01-9.922-7.775-12.896"/>
			</g>
			<g>
				<path fill="#F29E85" d="M42.402,266.911c-7.612-0.73-9.099,7.017-9.099,7.017c-0.35,10.097,8.761,7.448,8.761,7.448
					c3.722-0.829,5.17-6.326,5.17-6.326C48.276,267.252,42.402,266.911,42.402,266.911z"/>
				<path fill="#F29E85" d="M75.228,272.496c-4.34-4.719-9.712-1.12-9.712-1.12c-6.836,6.019-2.52,10.291-2.52,10.291
					c6.429,7.772,11.103,0.615,11.103,0.615C78.991,277.074,75.228,272.496,75.228,272.496z"/>
				<path fill="#F29E85" d="M52.095,232.955c0,0-3.924-1.933-6.505-0.085c0,0-6.638,5.599-1.824,11.333
					c0,0,5.815,4.741,10.433-2.569C54.198,241.633,56.928,234.697,52.095,232.955z"/>
				<path fill="#F29E85" d="M69.16,239.585c0,0,3.686-7.566-0.547-10.645c0,0-7.774-4.449-11.867,3.44c0,0-1.606,6.845,2.669,8.596
					C59.415,240.977,66.242,246.279,69.16,239.585z"/>
				<path fill="#F29E85" d="M75.972,251.101c0,0,5.287-1.569,7.378-8.156c0,0-0.234-6.045-6.685-6.188c0,0-6.316,0.861-6.713,6.862
					C69.952,243.62,68.498,250.46,75.972,251.101z"/>
			</g>
		</g>
		<path fill="#387D4F" d="M156.231,329.049c0,0,34.705,8.458,66.941-3.028c0,0,10.26-6.451,14.137-9.666
			c0,0,16.771-14.176,21.319-19.196c0,0,6.225-6.716,6.93-8.452c0,0,0.093-4.555-5.099-2.773c0,0-5.467,1.05-11.955,4.426
			c0,0-17.081,7.217-36.053,29.938l-1.049,1.038c0,0,6.658-9.358,8.197-10.985c0,0,11.703-16.531,12.686-18.23
			c0,0,5.752-9.084,10.285-18c0,0,7.461-13.744,5.96-20.811c0,0-1.785-6.23-17.336,14.629c0,0-2.516,1.936-7.629,8.796
			c0,0-12.051,16.356-19.604,37.606l-0.459,1.528c0,0,1.538-8.48,2.389-11.502c0,0,2.75-13.935,3.251-16.61
			c0,0,1.923-15.261,2.401-20.441c0,0,1.068-18.221,1.081-20.656c0,0,0.154-9.878-0.014-10.749c0,0-1.545-10.86-7.593,1.665
			c0,0-4.525,7.352-5.653,10.338c0,0-8.318,21.105-8.124,37.49c0,0-1.302,23.195-0.213,34.539c0,0-5.059-10.947-5.904-15.301
			l-5.146-13.939c0,0-7.651-20.424-8.988-24.447c0,0-4.329-10.354-4.581-11.92c0,0-5.662-15.161-11.697-18.428
			c0,0-2.4,0.145-1.988,4.408c0,0,1.409,13.486,2.401,16.553c0,0,4.296,20.301,9.17,32.988c0,0,4.792,14.98,14.339,38.893
			c0,0-22.19-27.385-28.078-32.285c0,0-13.423-14.191-18.206-17.556c0,0-1.66-1.956-5.095-3.644c0,0-4.443-1.797-0.166,5.285
			C127.089,280.548,151.451,328.1,156.231,329.049z"/>
		<g>
			<g>
				<polygon fill="#CF8344" points="43.764,232.955 43.764,232.955 43.764,232.955 				"/>
				<path fill="#CF8344" d="M55.902,230.479c-0.141-0.197-0.287-0.388-0.451-0.562c-2.538-2.658-1.793-5.65-0.936-8.643
					c0.253-0.879,0.744-0.898,1.157-0.412c0.075,0.089,0.146,0.192,0.217,0.314c0.36,0.638,0.54,1.379,0.797,2.072
					c0.285-1.802-0.36-3.524-0.444-5.294c0-0.001,0-0.001,0-0.001c-0.31-0.205-0.557-0.44-0.747-0.705
					c-0.346-0.475-0.503-1.045-0.48-1.713c0.027-0.836-0.13-1.609-0.924-2.092c-0.74,2.428-1.479,4.855-2.221,7.283
					c0.647,0.807,0.231,1.344-0.457,1.813c-0.596,1.208-1.19,2.416-1.785,3.625c0.747,0.391,0.821,1.007,0.585,1.731
					c-0.281,0.858-0.528,1.727-0.837,2.573c-0.373,1.021-0.126,2.67-1.303,2.876c-0.957,0.168-1.213-1.545-2.053-2.177
					c-0.754,0.595-1.505,1.189-2.256,1.784c0,0-0.001,0-0.001,0.001c3.943,3.713,4.016,5.424,1.804,10.437
					c-1.658-3.321-4.626-5.846-3.127-9.921c-1.616-0.133-3.001,0.857-4.57,0.949c1.457,1.662,1.459,3.483,0.717,5.463
					c-0.657,1.754-1.174,3.561-1.766,5.385c-2.496-1.658-4.062-5.619-3.369-8.154c0.197-0.721,0.276-1.475,0.41-2.213
					c-1.082,0.054-2.218-0.277-3.207,0.441c0.344,0.086,0.707,0.162,0.728,0.609c0.003,0.078-0.183,0.248-0.24,0.23
					c-0.416-0.119-0.42-0.502-0.487-0.84h-0.002c-1.068,0.077-2.184-0.197-3.191,0.395c0,0,0,0,0,0.002v-0.001
					c2.404,2.294,2.922,4.896,1.422,7.92c-0.41,0.826-0.982,1.226-1.409,0.387c-1.31-2.563-4.001-4.729-2.645-8.163
					c-1.247-0.039-2.509-0.189-3.682,0.418c0.549,0.928,0.386,1.855,0.058,2.816c-0.644,1.893-1.238,3.803-2.017,6.207
					c-1.651-3.182-2.929-6.002-3.903-8.963c-1.095-0.025-2.195-0.09-3.21,0.455c-0.44,1.723-0.902,3.436-2.034,5.268
					c-1.061-1.928-1.959-3.561-2.855-5.192c-2.013-0.301-3.963,0.399-5.954,0.44c-0.272,0.006-0.547-0.001-0.822-0.025
					c0.007,3.326,0.013,6.652,0.019,9.979c0.312-0.348,0.567-0.465,0.785-0.428c0.282,0.05,0.503,0.361,0.7,0.781
					c0.832,1.773,1.701,3.531,2.487,5.323c0.443,1.008,0.411,2.024-0.176,3.034c-0.529,0.911-0.92,1.902-1.38,2.854
					c-0.281,0.586-0.205,1.537-1.001,1.625c-0.121,0.014-0.225-0.003-0.313-0.038c-0.495-0.19-0.569-1.003-1.023-1.329
					c0.022,3.453,0.044,6.904,0.065,10.355c0.376-0.652,0.723-1.044,1.047-1.186c0.556-0.244,1.047,0.246,1.5,1.419
					c0.322,0.833,0.709,1.64,1.09,2.449c0.127,0.269,0.252,0.536,0.373,0.806h0.002c0.906-0.135,1.813-0.271,2.722-0.406
					c-0.124-0.27-0.235-0.55-0.344-0.832c-0.356-0.93-0.681-1.887-1.283-2.612c-2.781-3.348-1.913-6.646-0.194-10.019
					c0.197-0.391,0.281-0.926,0.795-0.993c0.565-0.073,0.707,0.474,0.902,0.853c0.958,1.869,1.891,3.752,2.842,5.625
					c0.47,0.93,0.52,1.861,0.083,2.816c-0.634,1.393-1.264,2.788-1.894,4.184c-0.143,0.313-0.282,0.624-0.424,0.936
					c0.904-0.138,1.809-0.276,2.713-0.414c0.088-0.203,0.157-0.415,0.264-0.607c0.037-0.07,0.072-0.148,0.104-0.229
					c0.35-0.875,0.347-2.209,1.403-2.114c0.659,0.06,1.081,0.874,1.28,1.739c0.062,0.264,0.103,0.531,0.122,0.783c0,0,0,0,0,0.001
					c0.927,0.022,1.854,0.042,2.727-0.356c-0.22-0.221-0.407-0.459-0.585-0.705c-0.922-1.275-1.357-2.819-2.09-4.199
					c-0.401-0.762,1.541-5.31,2.283-5.539c0.693-0.216,0.91,0.39,1.16,0.807c0.922,1.541,1.879,3.068,2.684,4.672
					c0.775,1.545-0.182,2.729-0.839,3.973c-0.137,0.258-0.261,0.52-0.353,0.788c0.78,0.069,1.529-0.046,2.246-0.362
					c0.135-0.327,0.273-0.584,0.418-0.764c0.277-0.35,0.576-0.396,0.896-0.063c0.149,0.156,0.304,0.391,0.464,0.723
					c0.787,0.055,1.555-0.023,2.281-0.361c-0.184-0.215-0.343-0.431-0.489-0.647c-1.644-2.419-1.066-4.944,0.058-7.524
					c0.403-0.927,0.896-1.311,1.556-0.371c1.205,1.715,2.377,3.463,3.392,5.293c0.356,0.644,0.018,1.314-0.222,1.997
					c-0.096,0.274-0.177,0.552-0.188,0.83h-0.002c0,0,0.002,0,0.002,0.001c1.811-0.088,3.639,0.037,5.409-0.481
					c-0.362-0.188-0.739-0.413-1.062-0.673c-0.54-0.44-0.918-0.985-0.787-1.641c0.336-1.67,1.16-3.246,1.838-4.836
					c0.127-0.298,0.512-0.153,0.781,0.032c1.01,0.695,2.325,4.072,2.478,5.985c0.028,0.355,0.022,0.666-0.041,0.893
					c0.001,0.001,0.001,0.001,0.001,0.001c1.335-0.128,2.671-0.255,4.006-0.382c-0.104-0.229-0.165-0.539-0.191-0.895
					c-0.141-1.766,0.577-4.75,1.442-5.57c0.649-0.617,0.962-0.083,1.242,0.321c0.751,1.089,1.468,2.202,2.19,3.312
					c0.141,0.217,0.282,0.435,0.424,0.65v0.001c0.504-0.557,1.041-1.087,1.506-1.675c3.293-4.15,5.281-8.926,6.509-14.026
					c1.496-6.216,3.118-12.433,2.019-18.931C56.516,231.459,56.232,230.947,55.902,230.479z M6.692,250.096
					c-0.377,0.87-0.86,0.304-1.105-0.17c-1.104-2.134-2.392-4.211-3.173-6.461c-0.694-1.997,0.887-3.688,1.595-5.472
					c0.174-0.439,0.636-0.456,0.869-0.031c1.291,2.361,2.847,4.598,3.587,7.436C7.916,246.878,7.378,248.519,6.692,250.096z
					 M12.22,262.457c-0.701,0.437-0.962-0.146-1.17-0.592c-0.98-2.107-2.098-4.174-2.83-6.368c-0.789-2.372,1.375-4.124,1.451-6.376
					c0.232-0.009,0.465-0.017,0.697-0.025c1.274,2.533,2.584,5.049,3.808,7.606C14.606,257.605,13.045,261.943,12.22,262.457z
					 M15.573,253.798c-1.274-2.52-2.408-4.712-3.49-6.93c-0.513-1.049,0.576-5.271,1.435-5.891c0.532-0.387,0.85-0.091,1.065,0.338
					c1.092,2.15,2.547,4.218,3.115,6.503C18.206,249.851,16.714,251.719,15.573,253.798z M21.821,263.558
					c-0.358,0.956-1.01,0.111-1.281-0.354c-1.015-1.752-2.234-3.45-2.873-5.339c-0.765-2.264,0.976-4.07,1.781-6.471
					c1.822,2.007,2.897,3.952,3.646,5.946C23.903,259.495,22.566,261.568,21.821,263.558z M25.181,254.574
					c-0.53,0.458-0.786,0.121-1.033-0.289c-1.004-1.675-2.01-3.348-2.996-5.033c-0.273-0.468-0.35-0.985-0.168-1.521
					c0.723-2.124,1.442-4.248,2.301-6.78c1.32,2.207,2.481,4.029,3.518,5.917C27.549,248.226,26.33,253.583,25.181,254.574z
					 M28.797,261.855c-3.432-2.895-2.021-5.934-0.479-9.051c0.483-0.979,0.903-1.152,1.534-0.177
					c0.081,0.126,0.128,0.28,0.229,0.388c3.415,3.58,2.957,7.342,0.322,11.355C29.835,263.452,29.493,262.442,28.797,261.855z
					 M33.987,254.287c-3.46-3.193-4.487-6.172-3.217-9.376c0.217-0.545,0.292-1.317,0.965-1.419
					c0.758-0.115,0.841,0.721,1.147,1.194c0.284,0.442,0.491,0.935,0.769,1.382C35.731,249.422,35.779,250.523,33.987,254.287z
					 M37.762,252.965c2.708,2.933,4.455,5.919,2.366,9.794c-0.209,0.385-0.274,0.963-0.799,0.992
					c-0.532,0.031-0.597-0.572-0.866-0.905C35.98,259.773,35.671,256.535,37.762,252.965z M43.62,250.438
					c-0.609,1.223-0.902,2.603-1.406,4.111c-2.766-3.132-4.534-6.12-2.314-9.991c0.221-0.385,0.245-0.88,0.453-1.276
					c0.432-0.819-0.002-2.323,1.134-2.424c0.825-0.073,0.957,1.372,1.529,2.054C44.997,245.268,44.957,247.762,43.62,250.438z
					 M47.929,263.724c-3.62-4.143-4.147-8.104-1.755-12.656c0.593-1.131,1.012-1.023,1.734-0.102
					C50.751,254.598,50.783,259.074,47.929,263.724z M51.246,252.345c-3.469-4.271-3.893-6.958-1.689-10.729
					C53.933,246.434,53.723,246.931,51.246,252.345z M55.5,236.252c-0.429,2.04-0.968,4.059-1.56,6.497
					c-1.266-1.765-2.248-3.182-3.281-4.562c-0.534-0.714-0.367-1.405-0.118-2.136c0.194-0.57,0.292-1.189,0.573-1.711
					c0.623-1.152-0.031-3.082,1.688-3.459C53.609,230.707,55.749,235.07,55.5,236.252z"/>
				<path fill="#CF8344" d="M55.044,168.662c-1.975-0.584-3.656,0.334-5.045,1.789c-3.539,3.713-5.811,8.248-7.922,12.807
					c-2.875,6.202-5.377,12.577-8.036,18.879c-0.019,0.22-0.04,0.439-0.064,0.658c-0.112,1.061-0.294,2.107-0.733,3.1l0,0
					c-0.6,1.809-1.197,3.619-1.796,5.429c0.893,2.122,2.961,3.736,2.749,6.339c-0.017,0.097,0.023,0.16,0.117,0.189h-0.002
					c2.519,2.155,3.091,5.222,3.821,8.205c0.043,0.176-0.271,0.604-0.458,0.629c-0.213,0.029-0.504-0.225-0.702-0.417
					c-0.798-0.776-1.573-1.577-2.356-2.368c-0.662,1.709-0.182,3.521-0.474,5.264c-0.146,0.867-0.151,1.78-0.78,2.498
					c2.557-0.061,5.245,0.416,7.253-1.822c3.031-6.974,4.907-14.381,8.005-21.329c0.303-0.9,0.604-1.802,0.907-2.7
					c0.096-0.287,0.192-0.573,0.287-0.859c0,0,0.001-0.001,0.001-0.002c2.271-6.289,4.898-12.464,6.515-18.972
					c1.029-4.144,2.29-8.256,1.929-12.644C58.073,171.065,57.235,169.31,55.044,168.662z M41.291,218.951
					c-0.18,0.111-0.577,0.004-0.808-0.131c-2.633-1.528-4.596-5.805-3.923-8.561c0.134-0.549,0.135-1.24,0.896-1.397
					c0.509,0.095,0.794,0.453,1.022,0.843c1.536,2.631,2.371,5.512,3.001,8.463C41.534,218.417,41.458,218.85,41.291,218.951z
					 M39.516,200.762c0.098-0.697-0.292-1.672,0.694-1.927c0.815-0.21,1.067,0.686,1.485,1.18c2.818,3.334,3.069,7.375,3.063,11.52
					C42.439,208.199,38.861,205.482,39.516,200.762z M47.063,202.75c-2.192-3.859-7.101-6.711-4.364-12.942
					C44.314,194.43,47.751,197.794,47.063,202.75z M50.191,194.511c-0.609,0.26-0.749-0.345-0.926-0.717
					c-1.092-2.298-3.855-3.511-4.108-6.355c-0.047-0.52-0.2-1.031-0.255-1.305c-0.003-0.326-0.019-0.406,0-0.477
					c0.223-0.91-0.075-2.275,0.97-2.537c0.827-0.207,1.066,1.096,1.495,1.764c1.655,2.578,2.47,5.479,3.116,8.437
					C50.58,193.763,50.716,194.289,50.191,194.511z M52.15,185.97c-0.394,0.258-0.731,0.046-0.966-0.267
					c-1.535-2.046-3.014-4.12-3.188-6.843c0.108-0.743-0.188-1.797,0.857-2.045c0.868-0.206,1.229,0.672,1.618,1.305
					c1.291,2.1,1.549,4.506,2.014,6.848C52.557,185.333,52.503,185.74,52.15,185.97z M54.067,179.072
					c-0.556,0.184-1.004-0.237-1.309-0.666c-1.013-1.425-1.481-3.082-1.922-4.742c-0.122-0.461,0.039-0.914,0.517-1.115
					c0.499-0.211,0.893,0.089,1.143,0.462c0.96,1.429,1.889,2.882,1.839,4.983C54.313,178.185,54.801,178.831,54.067,179.072z"/>
				<path fill="#BD793D" d="M37.837,233.9c-0.139,0.181-0.228,0.367-0.284,0.557c0.106-0.012,0.212-0.025,0.317-0.037l0,0
					c1.569-0.092,2.954-1.082,4.57-0.949c0.113-0.045,0.23-0.09,0.344-0.135c-0.144-0.167-0.318-0.316-0.521-0.439
					C40.557,232.207,39.171,232.942,37.837,233.9z"/>
				<path fill="#BD793D" d="M33.702,234.249c-1.035-0.437-2.031-0.511-2.933,0.319c0.052,1.224-0.377,0.301-0.632,0.152
					c-1.081-0.496-2.045-0.41-2.83,0.572c-0.064,0.158-0.107,0.311-0.131,0.46c0.094-0.005,0.189-0.011,0.285-0.015
					c0-0.002,0-0.001,0-0.001c1.008-0.593,2.123-0.318,3.191-0.396h0.002c0.989-0.719,2.125-0.388,3.207-0.441
					c0.145-0.018,0.291-0.035,0.437-0.053C34.141,234.628,33.945,234.425,33.702,234.249z"/>
				<path fill="#BD793D" d="M1.244,236.683c0.02-0.799,0.033-1.596-0.102-2.39c-0.005-0.057-0.005-0.112-0.005-0.169
					c-0.26,0.002-0.52,0.01-0.777,0.029l0,0c0.018,1.051,0.034,2.101,0.05,3.15c0.275,0.024,0.55,0.031,0.822,0.025
					c1.991-0.041,3.941-0.741,5.954-0.44c0.243-0.003,0.486-0.007,0.729-0.011c-0.339-0.361-0.72-0.681-1.199-0.912
					C4.815,235.836,2.907,235.679,1.244,236.683z"/>
				<path fill="#BD793D" d="M15.073,235.611c-1.113-0.316-2.192-0.344-3.159,0.441c-0.185,0.251-0.356,0.51-0.52,0.771
					c0.226-0.003,0.455-0.006,0.682-0.01c1.015-0.545,2.115-0.48,3.21-0.455c0.187-0.002,0.371-0.004,0.558-0.006
					C15.612,236.091,15.357,235.842,15.073,235.611z"/>
				<path fill="#BD793D" d="M45.801,230.613c-1.345,0.162-2.191,0.869-2.436,2.233c0.011,0.085,0.026,0.165,0.043,0.246
					c0.118-0.046,0.236-0.092,0.355-0.138l0.001-0.001c0.751-0.595,1.502-1.189,2.256-1.784c0.12-0.166,0.25-0.327,0.382-0.485
					C46.2,230.604,45.998,230.562,45.801,230.613z"/>
				<path fill="#BD793D" d="M24.49,235.128c-1.246-0.361-2.448-0.447-3.479,0.559c-0.07,0.204-0.134,0.408-0.202,0.614
					c0.114-0.001,0.227-0.003,0.339-0.003c1.173-0.607,2.435-0.457,3.682-0.418c0.149-0.008,0.298-0.016,0.445-0.023
					C25.096,235.564,24.835,235.312,24.49,235.128z"/>
				<path fill="#BD793D" d="M41.524,229.701c-0.287,0.069-0.59,0.117-0.909,0.139c-2.008,2.238-4.696,1.762-7.253,1.822
					c-0.062,0.012-0.125,0.02-0.188,0.029c0.018,0.104,0.028,0.207,0.047,0.311c2.569,1.258,5.995,0.696,7.942-1.313
					C41.256,230.345,41.382,230.019,41.524,229.701z"/>
				<path fill="#BD793D" d="M49.814,204.951c-0.095,0.286-0.191,0.572-0.287,0.859c-0.303,0.898-0.604,1.8-0.907,2.7
					c0.31,0.099,0.58,0.19,0.83,0.28c0.604-0.743,0.709-1.545,0.63-2.366C50.031,205.938,49.921,205.444,49.814,204.951z"/>
				<path fill="#BD793D" d="M27.71,203.544c-1.373-0.391-1.182-1.354-1.05-2.297c0.019-0.143,0.039-0.283,0.052-0.423
					c-0.238,0.035-0.475,0.069-0.711,0.104c-0.104,0.05-0.207,0.091-0.313,0.128c-1.79,0.644-3.569-0.372-5.356-0.16v0.001
					c-6.438,0.066-12.872,0.132-19.31,0.199c-0.283,0.002-0.568,0.005-0.852,0.008c0.003,0.898,0.006,1.797,0.007,2.694v0.001
					c0.262-0.002,0.524-0.003,0.786-0.004c6.011-0.029,12.021-0.057,18.032-0.092c0.83-0.004,1.647,0.031,2.409,0.414
					c1.523-0.963,3.042,0.272,4.564,0.01C26.445,203.624,27.076,203.579,27.71,203.544L27.71,203.544z"/>
				<path fill="#E99D5E" d="M46.38,265.916c-0.723-1.109-1.439-2.223-2.19-3.312c-0.28-0.404-0.593-0.938-1.242-0.321
					c-0.865,0.82-1.583,3.805-1.442,5.57c0.048,0,0.094-0.003,0.143-0.001c0.139,0.005,0.281-0.001,0.423-0.009
					c-0.094,0.314-0.21,0.619-0.374,0.904c1.32,0.055,2.631,0.029,3.891-0.438c0.036-0.014,0.073-0.023,0.109-0.039
					c0.369-0.567,0.738-1.137,1.107-1.704v-0.001C46.662,266.35,46.521,266.132,46.38,265.916z"/>
				<path fill="#E99D5E" d="M41.647,267.852c-0.049-0.002-0.095,0.001-0.143,0.001c0.026,0.355,0.088,0.665,0.191,0.895
					c0.164-0.285,0.28-0.59,0.374-0.904C41.929,267.851,41.786,267.857,41.647,267.852z"/>
				<path fill="#E89E5F" d="M56.688,223.251c0-0.001-0.002-0.002-0.002-0.002c-0.257-0.693-0.437-1.435-0.797-2.072
					c-0.07-0.122-0.142-0.226-0.217-0.314c-0.413-0.486-0.904-0.467-1.157,0.412c-0.857,2.992-1.603,5.984,0.936,8.643
					c0.164,0.174,0.311,0.364,0.451,0.562c0.33,0.468,0.613,0.98,0.935,1.456C56.786,229.04,56.737,226.144,56.688,223.251z"/>
				<path fill="#9B5729" d="M26.001,200.929c-0.154-1.541-0.309-3.084-0.463-4.626v-0.001v0.002
					c-0.278,0.076-0.557,0.152-0.835,0.229c-1.559,0.426-3.116,0.852-4.675,1.277c0.073,0.746,0.146,1.492,0.22,2.236
					c0.028,0.283,0.056,0.566,0.084,0.851c1.787-0.212,3.566,0.804,5.356,0.16c-0.127-0.133-0.238-0.269-0.331-0.41
					C25.573,200.735,25.788,200.828,26.001,200.929z"/>
				<path fill="#9B5729" d="M25.688,201.057c0.105-0.037,0.208-0.078,0.313-0.128c-0.213-0.102-0.428-0.194-0.644-0.282
					C25.45,200.789,25.562,200.924,25.688,201.057z"/>
				<polygon fill="#9A5829" points="7.585,173.854 7.585,173.854 7.585,173.854 				"/>
				<path fill="#9A5829" d="M4.515,167.406c0.175,0.255,0.339,0.514,0.495,0.777c1.064,1.792,1.743,3.768,2.575,5.671l0,0
					c0.625-0.044,1.25-0.088,1.877-0.132c0,0,0,0-0.002-0.001c-0.368-2.079,0.41-3.989,0.836-5.952
					c0.054-0.246,0.102-0.492,0.141-0.74h0.002v0C8.399,166.164,6.464,166.887,4.515,167.406z"/>
				<path fill="#9A5829" d="M23.831,188.456c0.261-0.056,0.521-0.11,0.782-0.167l0,0h0.001c-0.23-1.527-0.463-3.055-0.693-4.583
					c-0.283,0.188-0.564,0.379-0.845,0.572c-0.833,0.573-1.66,1.153-2.545,1.63c-1.013,0.547-1.758,0.462-1.897-0.511
					c-0.029-0.201-0.035-0.437-0.008-0.716c1.351-1.081,2.506-2.449,4.148-3.102c0.249-0.1,0.508-0.182,0.783-0.245l0,0
					c-0.492-1.521-0.986-3.041-1.479-4.563v0.001l0,0c-0.229,0.199-0.442,0.412-0.651,0.633c-1.313,1.385-2.339,3.092-4.267,3.796
					c0.212,1.308,0.422,2.616,0.634,3.923v0.001c0.02,0.101,0.037,0.202,0.056,0.304c0.31,1.705,0.618,3.41,0.929,5.115v-0.001
					C20.244,189.283,22.027,188.843,23.831,188.456z"/>
				<polygon fill="#9A5829" points="18.779,190.544 18.779,190.544 18.779,190.544 				"/>
				<path fill="#9A5829" d="M17.164,169.982L17.164,169.982L17.164,169.982c-1.243-1.331-2.776-2.132-4.56-2.463
					c0.016,0.302,0.01,0.601-0.004,0.899c-0.092,1.822-0.667,3.576-0.897,5.379l0,0c0.712,0.556,1.425,1.111,2.134,1.667v-0.001
					c0.612-1.781,1.521-3.382,2.725-4.805C16.755,170.428,16.954,170.203,17.164,169.982z"/>
				<path fill="#9A5829" d="M24.063,190.667c-1.648,0.471-3.185,1.367-4.966,1.339l-0.001-0.001
					c-0.114,1.378,0.392,2.662,0.587,3.992c1.438-1.051,3.108-1.428,4.783-1.794c0.3-0.065,0.6-0.13,0.896-0.198l0.001-0.002
					c-0.161-1.176-0.319-2.352-0.481-3.527C24.604,190.525,24.332,190.591,24.063,190.667z"/>
				<path fill="#E9643E" d="M27.881,199.066c-0.313-0.01-0.626-0.021-0.938-0.031c-0.078,0.596-0.157,1.193-0.231,1.79
					c-0.013,0.14-0.033,0.28-0.052,0.423c-0.132,0.942-0.323,1.906,1.05,2.297l0,0l0,0c0.07,0.007,0.141,0.017,0.211,0.025
					c0.996,0.117,1.992,0.393,2.993,0.003c-0.011-0.133,0.001-0.264,0.036-0.394c0.104-0.3,0.208-0.6,0.312-0.899
					c0.066-0.188,0.131-0.376,0.196-0.563c0.002-0.844,0.004-1.688,0.004-2.529c-0.291-0.01-0.582-0.02-0.873-0.03
					C29.687,199.126,28.783,199.097,27.881,199.066z"/>
				<path fill="#9B5929" d="M20.401,175.109c-0.002-0.002-0.002-0.003-0.002-0.004c-0.682-0.97-1.645-1.707-2.28-2.711
					c-0.821,1.629-1.532,3.325-2.851,4.658c0.369,0.768,0.738,1.535,1.109,2.303l0,0C17.925,178.144,18.876,176.339,20.401,175.109z
					"/>
				<path fill="#9B5929" d="M20.399,175.105c0,0.001,0,0.002,0.002,0.004c0.217-0.177,0.447-0.341,0.692-0.49v-0.002
					c-0.839-1.031-1.679-2.063-2.518-3.094c-0.157,0.287-0.31,0.578-0.457,0.871C18.755,173.398,19.718,174.135,20.399,175.105z"/>
				<path fill="#E09D5C" d="M56.027,213.683c-0.246-1.396,0.071-3.07-1.46-4.025c-0.062,0.496-0.124,0.992-0.186,1.488
					c-0.088,0.688-0.174,1.378-0.26,2.066c0.09,0.002,0.176,0.007,0.258,0.018c-0.086,0.072-0.182,0.145-0.289,0.215
					c0.794,0.482,0.951,1.256,0.924,2.092c-0.022,0.668,0.135,1.238,0.48,1.713c0.19,0.265,0.438,0.5,0.747,0.705l0,0
					C56.185,216.529,56.273,215.076,56.027,213.683z"/>
				<path fill="#E09D5C" d="M54.122,213.212c-0.011,0.078-0.021,0.154-0.031,0.232c0.107-0.07,0.203-0.143,0.289-0.215
					C54.298,213.219,54.212,213.214,54.122,213.212z"/>
				<path fill="#BA763E" d="M34.038,202.136c-0.858-0.14-1.719-0.28-2.58-0.42c-0.065,0.188-0.13,0.375-0.196,0.563
					c-0.104,0.3-0.208,0.6-0.312,0.899l0,0c0.065,0.27,0.187,0.492,0.331,0.696c0.334,0.47,0.817,0.813,1.255,1.196
					c0.275,0.24,0.53,0.497,0.707,0.822l0,0c0.439-0.992,0.621-2.039,0.733-3.1c0.024-0.219,0.046-0.438,0.064-0.658H34.038z"/>
				<path fill="#659D5E" d="M16.311,179.5c0.04-0.004,0.082-0.007,0.122-0.012c-0.019-0.044-0.037-0.089-0.055-0.133
					C16.351,179.406,16.335,179.451,16.311,179.5z"/>
				<path fill="#659D5E" d="M19.582,196.135c0.044,0.008,0.087,0.014,0.131,0.021c-0.01-0.053-0.02-0.105-0.03-0.158
					C19.643,196.045,19.615,196.089,19.582,196.135z"/>
				<path fill="#BE793F" d="M49.815,204.949L49.815,204.949c0.105,0.495,0.216,0.989,0.265,1.476
					c0.079,0.821-0.026,1.623-0.63,2.366c2.094,0.75,2.219,1.293,1.526,3.903c-1.186,4.483-2.458,8.966-4.962,12.924
					c-1.111,1.756-2.323,3.562-4.49,4.083c-0.143,0.318-0.269,0.645-0.36,0.988c-1.947,2.009-5.373,2.57-7.942,1.313
					c-0.019-0.104-0.029-0.206-0.047-0.311c-4.679,0.795-9.404,0.959-14.137,1.05c-0.451,0.008-0.908,0.021-1.189-0.44v-0.001
					c-1.875,0.802-3.886,0.38-5.82,0.528c-1.365,0.105-0.592-1.066-0.309-1.613c1.213-2.337,2.709-4.533,3.417-7.113
					c0.05-0.093,0.095-0.188,0.144-0.281c2.926-5.629,4.129-11.814,5.702-17.88l0,0c-0.438-1.146-1.446-0.898-2.298-0.874
					c-4.233,0.12-8.45-0.608-12.71-0.021c-1.621,0.223-3.317-0.09-4.993-0.266c-0.266-0.027-0.531-0.053-0.795-0.071H0.186
					c0.054,8.608,0.106,17.218,0.159,25.825c0.006,0.912,0.012,1.824,0.018,2.735c0.256-0.001,0.511-0.003,0.766-0.005
					c2.039-0.012,4.076-0.023,6.114-0.036c-1.94,1.251-4.046,0.877-6.104,0.897c0,0.057,0,0.112,0.005,0.169
					c0.135,0.794,0.121,1.591,0.102,2.39c1.663-1.004,3.571-0.847,5.472-0.717c0.479,0.231,0.86,0.551,1.199,0.912
					c1.159-0.018,2.319-0.036,3.479-0.055c0.163-0.262,0.335-0.521,0.52-0.771c0.967-0.785,2.046-0.758,3.159-0.441
					c0.284,0.231,0.539,0.48,0.771,0.742c1.655-0.018,3.312-0.035,4.966-0.052c0.068-0.206,0.132-0.41,0.202-0.614
					c1.03-1.006,2.232-0.92,3.479-0.559c0.345,0.184,0.605,0.436,0.785,0.729c0.634-0.035,1.269-0.069,1.901-0.104
					c0.023-0.149,0.066-0.302,0.131-0.46c0.785-0.982,1.749-1.068,2.83-0.572c0.255,0.148,0.684,1.071,0.632-0.152
					c0.901-0.83,1.897-0.756,2.933-0.319c0.243,0.177,0.438,0.38,0.597,0.599c1.085-0.131,2.169-0.26,3.254-0.391
					c0.057-0.189,0.146-0.376,0.284-0.557c1.334-0.958,2.72-1.693,4.426-1.004c0.203,0.123,0.378,0.272,0.521,0.439
					c0.209-0.081,0.416-0.162,0.624-0.243c-0.017-0.081-0.032-0.161-0.043-0.246c0.244-1.364,1.091-2.071,2.436-2.233
					c0.197-0.051,0.399-0.009,0.602,0.071c1.023-1.245,2.28-2.323,2.961-3.817c0.101-0.225,0.19-0.457,0.265-0.701
					c0.595-1.209,1.189-2.417,1.785-3.625c0.152-0.604,0.305-1.209,0.457-1.813c0.741-2.428,1.48-4.855,2.221-7.283
					c0.01-0.078,0.021-0.154,0.031-0.232c0.086-0.688,0.172-1.379,0.26-2.066c0.062-0.496,0.124-0.992,0.186-1.488l0,0
					C53.94,207.124,51.319,206.599,49.815,204.949z"/>
				<path fill="#E99D5F" d="M4.401,252.959c-0.786-1.792-1.655-3.55-2.487-5.323c-0.197-0.42-0.418-0.731-0.7-0.781
					c-0.218-0.037-0.474,0.08-0.785,0.428c0.025,3.941,0.054,7.882,0.079,11.822c0.454,0.326,0.528,1.139,1.023,1.329
					c0.089,0.035,0.192,0.052,0.313,0.038c0.796-0.088,0.72-1.039,1.001-1.625c0.46-0.951,0.851-1.942,1.38-2.854
					C4.813,254.984,4.845,253.967,4.401,252.959z"/>
				<path fill="#9D5A2B" d="M20.972,204.661c-0.046-0.015-0.092-0.024-0.135-0.038c0.199,0.108,0.376,0.26,0.521,0.479
					c0.023-0.134,0.036-0.271,0.042-0.409C21.257,204.679,21.114,204.666,20.972,204.661z"/>
				<path fill="#9D5A2B" d="M16.458,204.382c0.957-0.004,1.912-0.01,2.87-0.013c0.147-0.001,0.294,0.003,0.438,0.009
					C18.666,204.217,17.553,204.291,16.458,204.382z"/>
				<path fill="#9D5A2B" d="M0.178,203.8c0.003,0.303,0.005,0.605,0.007,0.906l0.002,0.001c0.216-0.21,0.467-0.325,0.738-0.385
					C0.651,204.222,0.398,204.06,0.178,203.8z"/>
				<path fill="#9D5A2B" d="M16.458,204.382c1.095-0.092,2.208-0.165,3.308-0.004c0.391,0.017,0.758,0.076,1.071,0.244
					c0.043,0.014,0.089,0.023,0.135,0.038c0.143,0.005,0.285,0.019,0.428,0.031c0.01-0.189,0.009-0.381,0.006-0.573l0,0
					c-0.762-0.383-1.579-0.418-2.409-0.414c-6.011,0.035-12.021,0.063-18.032,0.092c-0.004,0.172-0.002,0.346,0,0.518
					c0.147-0.029,0.299-0.047,0.457-0.041C6.432,204.435,11.444,204.408,16.458,204.382z"/>
				<path fill="#9D5A2B" d="M0.925,204.323c0.014-0.003,0.026-0.007,0.039-0.009c-0.002-0.172-0.004-0.346,0-0.518
					c-0.262,0.001-0.524,0.002-0.786,0.004C0.398,204.06,0.651,204.222,0.925,204.323z"/>
				<path fill="#9D5A2B" d="M5.975,205.044c4.26-0.587,8.477,0.142,12.71,0.021c0.852-0.024,1.859-0.272,2.298,0.874l0,0
					c0.216-0.259,0.321-0.542,0.375-0.839c-0.145-0.219-0.321-0.37-0.521-0.479c-0.355-0.11-0.713-0.191-1.071-0.244
					c-0.144-0.006-0.29-0.01-0.438-0.009c-0.958,0.003-1.913,0.009-2.87,0.013c-0.205,0.018-0.41,0.035-0.612,0.053
					c-4.544,0.378-9.075-0.248-13.611,0.023c-0.437,0.025-0.873,0.014-1.271-0.123c0.002,0.148,0.01,0.295,0.018,0.443
					C2.657,204.955,4.354,205.267,5.975,205.044z"/>
				<path fill="#9D5A2B" d="M0.964,204.335c-0.013-0.004-0.027-0.008-0.039-0.013c-0.271,0.06-0.522,0.175-0.738,0.385
					c0.264,0.019,0.529,0.044,0.795,0.071C0.974,204.63,0.966,204.484,0.964,204.335z"/>
				<path fill="#9D5A2B" d="M20.837,204.623c-0.313-0.168-0.681-0.228-1.071-0.244C20.124,204.431,20.481,204.512,20.837,204.623z"
					/>
				<path fill="#9D5A2B" d="M2.234,204.458c4.536-0.271,9.067,0.354,13.611-0.023c0.202-0.018,0.407-0.035,0.612-0.053
					c-5.014,0.025-10.026,0.053-15.037-0.109c-0.158-0.006-0.31,0.012-0.457,0.041c0,0.008-0.001,0.015,0,0.021
					C1.361,204.472,1.798,204.484,2.234,204.458z"/>
				<path fill="#9D5A2B" d="M0.925,204.323c0.012,0.005,0.026,0.009,0.039,0.013c-0.001-0.007,0-0.014,0-0.021
					C0.951,204.316,0.938,204.32,0.925,204.323z"/>
				<polygon fill="#E89D5D" points="11.703,173.796 11.703,173.796 11.703,173.796 				"/>
				<path fill="#E89D5D" d="M10.438,167.029h-0.002c-0.039,0.248-0.087,0.494-0.141,0.74c-0.426,1.963-1.204,3.873-0.836,5.952
					c0.002,0.001,0.002,0.001,0.002,0.001c0.129,0.004,0.26,0.008,0.391,0.013c0.407,0.013,0.813,0.026,1.222,0.04
					c0.208,0.008,0.419,0.014,0.629,0.021l0,0c0.23-1.803,0.806-3.557,0.897-5.379c0.014-0.298,0.02-0.597,0.004-0.899
					C11.916,167.206,11.226,166.903,10.438,167.029z"/>
				<path fill="#E89D5D" d="M18.119,172.394c0.147-0.293,0.3-0.584,0.457-0.871c-0.295-0.674-0.82-1.137-1.412-1.541l0,0
					c-0.21,0.221-0.409,0.446-0.603,0.676c-1.203,1.423-2.112,3.023-2.725,4.805v0.001v0.001c0.093,0.102,0.184,0.204,0.276,0.306
					c0.247,0.274,0.495,0.548,0.741,0.823c0.139,0.152,0.277,0.305,0.414,0.459l0,0C16.587,175.719,17.298,174.023,18.119,172.394z"
					/>
				<path fill="#E89D5D" d="M21.428,177.406c0.209-0.221,0.423-0.434,0.651-0.633l0,0c-0.328-0.718-0.655-1.438-0.983-2.155
					c-0.002,0.001-0.002,0.001-0.002,0.001c-0.245,0.149-0.476,0.313-0.692,0.49c-1.525,1.23-2.477,3.035-4.023,4.246
					c0.018,0.044,0.036,0.089,0.055,0.133c0.175,0.41,0.349,0.819,0.521,1.229c0.071,0.161,0.138,0.323,0.207,0.484
					C19.089,180.498,20.114,178.791,21.428,177.406z"/>
				<path fill="#E89D5D" d="M4.515,167.406c-0.581,0.12-1.017,0.458-1.365,0.924c-0.001,0-0.001,0-0.001,0.001
					c0.102,0.211,0.188,0.427,0.275,0.646c0.767,1.978,0.973,4.186,2.405,5.889H5.83c0.168-0.098,0.339-0.195,0.507-0.293
					c0.3-0.172,0.598-0.344,0.898-0.518c0.115-0.066,0.232-0.133,0.35-0.2l0,0c-0.832-1.903-1.511-3.88-2.575-5.671
					C4.854,167.919,4.689,167.661,4.515,167.406z"/>
				<path fill="#E89D5D" d="M20.531,185.908c0.885-0.477,1.712-1.057,2.545-1.63c0.28-0.193,0.562-0.385,0.845-0.572
					c-0.12-0.79-0.242-1.581-0.363-2.371c-0.275,0.063-0.534,0.146-0.783,0.245c-1.643,0.652-2.798,2.021-4.148,3.102
					c-0.027,0.279-0.021,0.515,0.008,0.716C18.773,186.37,19.519,186.455,20.531,185.908z"/>
				<path fill="#E89D5D" d="M24.882,190.476c0.034-0.744,0.118-1.494-0.269-2.187v-0.001c-0.261,0.057-0.521,0.111-0.782,0.167
					c-1.804,0.388-3.587,0.827-5.051,2.088l-0.001,0.001c0.009,0.047,0.021,0.094,0.03,0.141c0.065,0.301,0.132,0.603,0.196,0.904
					c0.03,0.139,0.06,0.278,0.09,0.416l0.001,0.001c1.781,0.028,3.317-0.868,4.966-1.339
					C24.332,190.591,24.604,190.525,24.882,190.476z"/>
				<path fill="#E89D5D" d="M25.362,194.005c-0.297,0.068-0.597,0.133-0.896,0.198c-1.675,0.366-3.346,0.743-4.783,1.794
					c0.011,0.053,0.021,0.105,0.03,0.158c0.075,0.395,0.15,0.791,0.226,1.186c0.029,0.156,0.06,0.313,0.09,0.469
					c1.559-0.426,3.116-0.852,4.675-1.277c0.278-0.076,0.557-0.152,0.835-0.229v-0.002C25.96,195.501,25.514,194.763,25.362,194.005
					L25.362,194.005z"/>
				<polygon fill="#E89D5D" points="0.003,173.457 0.003,173.457 0.003,173.457 				"/>
				<path fill="#E89D5D" d="M0.848,174.128c-0.289-0.215-0.577-0.434-0.845-0.672c0.013,1.09,0.026,2.182,0.039,3.271
					c0.291,0.252,0.584,0.5,0.889,0.73c0.295,0.224,0.601,0.43,0.924,0.611c0.242,0.136,0.493,0.257,0.76,0.357
					c0.291-0.381,0.581-0.761,0.869-1.141c0.079-0.102,0.154-0.201,0.231-0.301C3.101,175.672,1.94,174.937,0.848,174.128z"/>
				<path fill="#9B5B2C" d="M0.931,177.458c-0.305-0.23-0.598-0.479-0.889-0.73c0.008,1.801,0.016,3.602,0.022,5.4c0,0,0,0,0.001,0
					c0.259-0.375,0.516-0.749,0.774-1.124c0.592-0.858,1.184-1.718,1.774-2.577c-0.267-0.101-0.518-0.222-0.76-0.357
					C1.531,177.888,1.226,177.682,0.931,177.458z"/>
				<path fill="#9B5729" d="M1.122,233.592c0.001,0.071,0.003,0.144,0.003,0.215c0.174-0.05,0.35-0.089,0.524-0.11
					C1.474,233.675,1.298,233.64,1.122,233.592z"/>
				<path fill="#9B5729" d="M4.677,233.679c-0.53-0.104-1.116-0.037-1.725,0.01C3.561,233.732,4.148,233.792,4.677,233.679z"/>
				<path fill="#9B5729" d="M2.952,233.689c-0.427-0.029-0.865-0.048-1.303,0.008C2.087,233.746,2.525,233.723,2.952,233.689z"/>
				<path fill="#9B5729" d="M1.122,233.592c-0.255-0.069-0.51-0.171-0.76-0.324c-0.001,0.295-0.002,0.591-0.003,0.886H0.36
					c0.25-0.164,0.506-0.271,0.765-0.347C1.125,233.736,1.123,233.664,1.122,233.592z"/>
				<path fill="#9B5729" d="M7.242,233.227c-2.038,0.013-4.075,0.024-6.114,0.036c-0.003,0.11-0.005,0.22-0.006,0.329
					c0.176,0.048,0.352,0.083,0.527,0.104c0.438-0.056,0.876-0.037,1.303-0.008c0.608-0.047,1.194-0.113,1.725-0.01
					c-0.528,0.113-1.116,0.053-1.725,0.01c-0.427,0.034-0.865,0.057-1.303,0.008c-0.175,0.021-0.351,0.061-0.524,0.11
					c0.003,0.106,0.007,0.212,0.013,0.317C3.196,234.104,5.302,234.478,7.242,233.227z"/>
				<path fill="#9B5729" d="M1.128,233.263c-0.255,0.002-0.51,0.004-0.766,0.005c0.25,0.153,0.505,0.255,0.76,0.324
					C1.123,233.483,1.125,233.374,1.128,233.263z"/>
				<path fill="#9B5729" d="M1.125,233.807c-0.259,0.075-0.515,0.183-0.765,0.347c0.258-0.02,0.518-0.027,0.777-0.029
					C1.132,234.019,1.128,233.914,1.125,233.807z"/>
				<path fill="#E99D5F" d="M16.521,270.359c0.012,0.301-0.021,0.615-0.118,0.943c0.754-0.067,1.507-0.136,2.261-0.203
					c-0.001-0.001,0-0.001,0-0.001c-0.211-0.268-0.388-0.591-0.399-0.899C17.677,270.172,17.096,270.23,16.521,270.359z"/>
				<path fill="#E99D5F" d="M19.854,266.337c-0.805-1.604-1.762-3.131-2.684-4.672c-0.25-0.417-0.467-1.022-1.16-0.807
					c-0.742,0.229-2.685,4.777-2.283,5.539c0.732,1.38,1.168,2.924,2.09,4.199c0.177-0.052,0.352-0.113,0.522-0.201
					c0.06-0.016,0.122-0.024,0.181-0.037c0.575-0.129,1.156-0.187,1.743-0.16c0.068,0.003,0.139,0.002,0.206,0.006
					c0.187,0.069,0.367,0.097,0.546,0.105C19.673,269.066,20.63,267.882,19.854,266.337z"/>
				<path fill="#E99D5F" d="M18.47,270.205c-0.067-0.004-0.138-0.003-0.206-0.006c0.012,0.309,0.188,0.632,0.399,0.899
					c0.092-0.269,0.216-0.53,0.353-0.788C18.837,270.301,18.656,270.274,18.47,270.205z"/>
				<path fill="#E99D5F" d="M16.34,270.396c-0.171,0.088-0.346,0.149-0.522,0.201c0.178,0.246,0.365,0.484,0.585,0.705
					c0.098-0.328,0.13-0.643,0.118-0.943C16.462,270.372,16.399,270.38,16.34,270.396z"/>
				<path fill="#E89E5E" d="M37.73,268.236c-0.071,0.002-0.142,0.006-0.213,0.006c-0.094-0.002-0.188-0.002-0.282-0.004
					c0.137,0.307,0.282,0.606,0.454,0.891C37.753,268.902,37.759,268.591,37.73,268.236z"/>
				<path fill="#E89E5E" d="M37.518,268.242c0.071,0,0.142-0.004,0.213-0.006c-0.152-1.913-1.468-5.29-2.478-5.985
					c-0.27-0.186-0.654-0.33-0.781-0.032c-0.678,1.59-1.502,3.166-1.838,4.836c-0.131,0.655,0.247,1.2,0.787,1.641
					c0.322,0.26,0.699,0.484,1.062,0.673c1.069-0.079,2.138-0.159,3.207-0.238v-0.001c-0.172-0.284-0.317-0.584-0.454-0.891
					C37.33,268.24,37.424,268.24,37.518,268.242z"/>
				<path fill="#E59C5C" d="M12.599,270.943c-0.164-0.004-0.322,0.039-0.479,0.111C12.281,271.013,12.44,270.976,12.599,270.943z"/>
				<path fill="#E59C5C" d="M4.583,272.949c-0.121-0.27-0.246-0.537-0.373-0.806c-0.381-0.81-0.768-1.616-1.09-2.449
					c-0.453-1.173-0.944-1.663-1.5-1.419c-0.324,0.142-0.671,0.533-1.047,1.186c0.009,1.368,0.017,2.735,0.025,4.104l0,0
					c0.289-0.044,0.576-0.089,0.863-0.133C2.503,273.27,3.542,273.109,4.583,272.949L4.583,272.949z"/>
				<path fill="#E59C5C" d="M7.183,258.939c-0.195-0.379-0.337-0.926-0.902-0.853c-0.514,0.067-0.598,0.603-0.795,0.993
					c-1.719,3.372-2.587,6.671,0.194,10.019c0.603,0.726,0.927,1.683,1.283,2.612c0.108,0.282,0.22,0.563,0.344,0.832
					c0.161-0.014,0.321-0.028,0.483-0.043c0.142-0.312,0.281-0.623,0.424-0.936c0.63-1.396,1.26-2.791,1.894-4.184
					c0.437-0.955,0.387-1.887-0.083-2.816C9.073,262.691,8.141,260.808,7.183,258.939z M7.544,271.607
					c0.003-0.037,0.014-0.076,0.017-0.113c0.002,0.036,0.005,0.072,0.007,0.108C7.56,271.604,7.55,271.605,7.544,271.607z"/>
				<path fill="#E59C5C" d="M13.554,270.875c-0.199-0.865-0.621-1.68-1.28-1.739c-1.057-0.095-1.054,1.239-1.403,2.114
					c-0.031,0.08-0.066,0.158-0.104,0.229c-0.106,0.192-0.176,0.404-0.264,0.607c1.092,0.107,2.131-0.162,3.172-0.427l0.001-0.001
					C13.656,271.406,13.615,271.138,13.554,270.875z M12.12,271.054c0.156-0.072,0.314-0.115,0.479-0.111
					C12.44,270.976,12.281,271.013,12.12,271.054z"/>
				<path fill="#E89D5D" d="M20.909,270.736c0.592-0.035,1.185-0.069,1.777-0.104C22.071,270.289,21.47,270.169,20.909,270.736z"/>
				<path fill="#E89D5D" d="M21.327,269.972c0.301,0.002,0.599-0.02,0.896-0.063C21.903,269.576,21.604,269.623,21.327,269.972z"/>
				<path fill="#E89D5D" d="M21.327,269.972c-0.145,0.18-0.283,0.437-0.418,0.764c0.561-0.566,1.162-0.447,1.777-0.104
					c-0.16-0.332-0.314-0.566-0.464-0.723C21.926,269.953,21.628,269.974,21.327,269.972z"/>
				<path fill="#E99D5F" d="M46.174,251.068c-2.393,4.553-1.865,8.514,1.755,12.656c2.854-4.65,2.822-9.126-0.021-12.758
					C47.186,250.044,46.767,249.937,46.174,251.068z"/>
				<path fill="#E99D5F" d="M41.486,240.858c-1.136,0.101-0.702,1.604-1.134,2.424c-0.208,0.396-0.232,0.892-0.453,1.276
					c-2.22,3.871-0.451,6.859,2.314,9.991c0.504-1.509,0.797-2.889,1.406-4.111c1.337-2.676,1.377-5.17-0.604-7.526
					C42.443,242.23,42.312,240.785,41.486,240.858z"/>
				<path fill="#E99D5F" d="M37.87,234.419c-0.133,0.148-0.262,0.279-0.385,0.4c0.011-0.122,0.03-0.242,0.067-0.363
					c-1.085,0.131-2.169,0.26-3.254,0.391c0.106,0.146,0.188,0.302,0.255,0.462c-0.215-0.113-0.443-0.248-0.691-0.409
					c-0.134,0.738-0.213,1.492-0.41,2.213c-0.692,2.535,0.873,6.496,3.369,8.154c0.592-1.824,1.108-3.631,1.766-5.385
					C39.329,237.903,39.327,236.082,37.87,234.419z"/>
				<path fill="#E99D5F" d="M37.553,234.457c-0.037,0.121-0.057,0.241-0.067,0.363c0.123-0.121,0.252-0.252,0.385-0.4l0,0
					C37.765,234.431,37.659,234.445,37.553,234.457z"/>
				<path fill="#E99D5F" d="M34.299,234.847c-0.146,0.018-0.292,0.035-0.437,0.053c0.248,0.161,0.477,0.296,0.691,0.409
					C34.487,235.149,34.405,234.994,34.299,234.847z"/>
				<path fill="#E99D5F" d="M7.544,271.607c0.006-0.002,0.016-0.003,0.023-0.005c-0.002-0.036-0.005-0.072-0.007-0.108
					C7.558,271.531,7.547,271.57,7.544,271.607z"/>
				<path fill="#E99D5F" d="M26.092,261.728c-0.66-0.939-1.152-0.556-1.556,0.371c-1.124,2.58-1.701,5.105-0.058,7.524
					c0.146,0.217,0.306,0.433,0.489,0.647c1.383-0.006,2.776,0.098,4.104-0.423h0.002c0.012-0.278,0.093-0.556,0.188-0.83
					c0.239-0.683,0.578-1.354,0.222-1.997C28.469,265.191,27.297,263.443,26.092,261.728z"/>
				<path fill="#E99D5F" d="M25.181,254.574c1.149-0.99,2.368-6.348,1.621-7.706c-1.036-1.888-2.197-3.71-3.518-5.917
					c-0.858,2.532-1.578,4.656-2.301,6.78c-0.182,0.535-0.105,1.053,0.168,1.521c0.986,1.686,1.992,3.358,2.996,5.033
					C24.395,254.695,24.65,255.032,25.181,254.574z"/>
				<path fill="#E99D5F" d="M10.368,249.095c-0.232,0.009-0.465,0.017-0.697,0.025c-0.076,2.252-2.24,4.004-1.451,6.376
					c0.732,2.194,1.85,4.261,2.83,6.368c0.208,0.445,0.469,1.028,1.17,0.592c0.825-0.514,2.387-4.852,1.956-5.755
					C12.952,254.144,11.643,251.628,10.368,249.095z"/>
				<path fill="#E99D5F" d="M29.853,252.627c-0.631-0.976-1.051-0.802-1.534,0.177c-1.542,3.117-2.953,6.156,0.479,9.051
					c0.696,0.587,1.038,1.597,1.606,2.516c2.635-4.014,3.093-7.775-0.322-11.355C29.98,252.908,29.934,252.753,29.853,252.627z"/>
				<path fill="#E99D5F" d="M4.878,237.962c-0.233-0.425-0.695-0.408-0.869,0.031c-0.708,1.783-2.289,3.475-1.595,5.472
					c0.781,2.25,2.069,4.327,3.173,6.461c0.245,0.474,0.729,1.04,1.105,0.17c0.686-1.577,1.224-3.218,1.772-4.698
					C7.725,242.56,6.169,240.324,4.878,237.962z"/>
				<path fill="#E99D5F" d="M14.583,241.316c-0.216-0.429-0.533-0.725-1.065-0.338c-0.858,0.619-1.947,4.842-1.435,5.891
					c1.082,2.218,2.216,4.41,3.49,6.93c1.141-2.079,2.633-3.947,2.125-5.979C17.13,245.534,15.675,243.466,14.583,241.316z"/>
				<path fill="#E99D5F" d="M19.448,251.394c-0.806,2.4-2.546,4.207-1.781,6.471c0.639,1.889,1.858,3.587,2.873,5.339
					c0.271,0.466,0.923,1.311,1.281,0.354c0.745-1.99,2.082-4.063,1.273-6.218C22.346,255.346,21.271,253.401,19.448,251.394z"/>
				<path fill="#E99D5F" d="M52.802,230.882c-1.719,0.377-1.064,2.307-1.688,3.459c-0.281,0.521-0.379,1.141-0.573,1.711
					c-0.249,0.73-0.416,1.422,0.118,2.136c1.033,1.38,2.016,2.797,3.281,4.562c0.592-2.438,1.131-4.457,1.56-6.497
					C55.749,235.07,53.609,230.707,52.802,230.882z"/>
				<path fill="#E99D5F" d="M32.883,244.686c-0.307-0.474-0.39-1.31-1.147-1.194c-0.673,0.102-0.748,0.874-0.965,1.419
					c-1.271,3.204-0.243,6.183,3.217,9.376c1.792-3.764,1.744-4.864-0.336-8.219C33.374,245.621,33.167,245.128,32.883,244.686z"/>
				<path fill="#E99D5F" d="M38.463,262.846c0.27,0.333,0.334,0.937,0.866,0.905c0.524-0.029,0.59-0.607,0.799-0.992
					c2.089-3.875,0.342-6.861-2.366-9.794C35.671,256.535,35.98,259.773,38.463,262.846z"/>
				<path fill="#E99D5F" d="M51.246,252.345c2.477-5.414,2.687-5.911-1.689-10.729C47.354,245.387,47.777,248.074,51.246,252.345z"
					/>
				<path fill="#E99D5F" d="M43.764,232.955L43.764,232.955c-0.119,0.046-0.237,0.092-0.355,0.138
					c-0.208,0.081-0.415,0.162-0.624,0.243c-0.113,0.045-0.23,0.09-0.344,0.135c-1.499,4.075,1.469,6.6,3.127,9.921
					C47.779,238.378,47.707,236.667,43.764,232.955z"/>
				<path fill="#E99D5F" d="M27.462,235.737L27.462,235.737c-0.103,0.138-0.209,0.255-0.313,0.354c0-0.11,0.007-0.223,0.027-0.338
					c-0.633,0.035-1.268,0.069-1.901,0.104c-0.147,0.008-0.296,0.016-0.445,0.023c-1.356,3.434,1.335,5.6,2.645,8.163
					c0.427,0.839,0.999,0.439,1.409-0.387C30.384,240.632,29.866,238.031,27.462,235.737z"/>
				<path fill="#E99D5F" d="M27.149,236.09c0.104-0.099,0.21-0.216,0.313-0.353c-0.096,0.004-0.191,0.01-0.285,0.015
					C27.156,235.868,27.149,235.98,27.149,236.09z"/>
				<path fill="#E99D5F" d="M21.148,236.298c-0.146,0.114-0.291,0.217-0.437,0.313c0.032-0.104,0.066-0.206,0.098-0.31
					c-1.654,0.017-3.311,0.034-4.966,0.052c0.149,0.17,0.287,0.346,0.42,0.526c-0.32-0.144-0.647-0.313-0.978-0.521
					c0.975,2.961,2.252,5.781,3.903,8.963c0.778-2.404,1.373-4.314,2.017-6.207C21.534,238.154,21.697,237.226,21.148,236.298z"/>
				<path fill="#E99D5F" d="M20.712,236.611c0.146-0.096,0.291-0.198,0.437-0.313c-0.112,0-0.225,0.002-0.339,0.003
					C20.778,236.405,20.744,236.507,20.712,236.611z"/>
				<path fill="#E99D5F" d="M15.844,236.353c-0.187,0.002-0.371,0.004-0.558,0.006c0.33,0.207,0.657,0.377,0.978,0.521
					C16.131,236.699,15.993,236.523,15.844,236.353z"/>
				<path fill="#E99C5F" d="M12.076,236.814c-0.227,0.004-0.456,0.007-0.682,0.01c-1.16,0.019-2.32,0.037-3.479,0.055
					c0.203,0.215,0.393,0.442,0.57,0.683c-0.432-0.156-0.865-0.384-1.299-0.672c0.896,1.632,1.795,3.265,2.855,5.192
					C11.174,240.25,11.636,238.537,12.076,236.814L12.076,236.814z"/>
				<path fill="#E99C5F" d="M7.915,236.878c-0.242,0.004-0.485,0.008-0.729,0.011c0.434,0.288,0.867,0.516,1.299,0.672
					C8.308,237.321,8.118,237.093,7.915,236.878z"/>
				<path fill="#E89D5D" d="M49.628,226.166c-0.074,0.244-0.164,0.477-0.265,0.701c-0.681,1.494-1.938,2.572-2.961,3.817
					c-0.132,0.158-0.262,0.319-0.382,0.485c0.84,0.632,1.096,2.345,2.053,2.177c1.177-0.206,0.93-1.854,1.303-2.876
					c0.309-0.847,0.556-1.715,0.837-2.573C50.449,227.172,50.375,226.556,49.628,226.166z"/>
				<path fill="#D38A4C" d="M51.413,222.541c0.688-0.469,1.104-1.006,0.457-1.813l0,0C52.041,221.414,51.782,221.991,51.413,222.541
					z"/>
				<path fill="#D38A4C" d="M51.87,220.728L51.87,220.728c-0.152,0.604-0.305,1.208-0.457,1.813
					C51.782,221.991,52.041,221.414,51.87,220.728z"/>
				<path fill="#E69C5C" d="M31.143,236.181c0.058,0.018,0.243-0.152,0.24-0.23c-0.021-0.447-0.384-0.523-0.728-0.609
					C30.723,235.679,30.727,236.062,31.143,236.181z"/>
				<path fill="#523932" d="M30.589,199.157c0.291,0.011,0.582,0.021,0.873,0.03c0.544-1.424,0.128-2.188-1.441-2.483
					c-1.984-0.374-2.94,0.38-3.077,2.331c0.312,0.011,0.624,0.021,0.938,0.031C28.783,199.097,29.687,199.126,30.589,199.157z"/>
				<path fill="#523932" d="M30.975,210.572c-0.612-1.306-0.257-2.713-0.08-4.122c0.093-0.749,0.053-1.515,0.03-2.278
					c-0.004-0.2-0.011-0.4-0.011-0.598v-0.001c-1.001,0.39-1.997,0.114-2.993-0.003c-0.07-0.009-0.141-0.019-0.211-0.025l0,0
					c-0.634,0.034-1.265,0.079-1.74,0.584c-0.046,0.245-0.09,0.492-0.135,0.737c-0.297,1.594-0.582,3.189-0.907,4.777
					c-0.268,1.298-0.937,2.274-2.127,3.013c-1.203,0.746-2.123,1.799-2.526,3.185c-0.052,0.181-0.098,0.366-0.133,0.559
					c4.426,0.71,8.941,0.422,13.366,1.144c0.229,0.037,0.458,0.076,0.688,0.119c0.212-2.603-1.856-4.217-2.749-6.339
					C31.246,211.078,31.094,210.827,30.975,210.572z"/>
				<path fill="#E99D5F" d="M41.695,200.015c-0.418-0.494-0.67-1.39-1.485-1.18c-0.986,0.255-0.597,1.229-0.694,1.927
					c-0.654,4.72,2.924,7.437,5.242,10.772C44.765,207.39,44.514,203.349,41.695,200.015z"/>
				<path fill="#E99D5F" d="M45.157,187.439c0.253,2.845,3.017,4.058,4.108,6.355c0.177,0.372,0.316,0.977,0.926,0.717
					c0.524-0.223,0.389-0.748,0.292-1.19c-0.646-2.957-1.461-5.858-3.116-8.437c-0.429-0.668-0.668-1.971-1.495-1.764
					c-1.045,0.262-0.747,1.627-0.97,2.537c-0.019,0.07-0.003,0.15,0,0.477C44.957,186.408,45.11,186.919,45.157,187.439z"/>
				<path fill="#E99D5F" d="M42.698,189.807c-2.736,6.231,2.172,9.083,4.364,12.942C47.751,197.794,44.314,194.43,42.698,189.807z"
					/>
				<path fill="#E99D5F" d="M40.483,218.82c0.23,0.135,0.628,0.242,0.808,0.131c0.167-0.101,0.243-0.533,0.189-0.783
					c-0.63-2.951-1.465-5.832-3.001-8.463c-0.229-0.39-0.514-0.748-1.022-0.843c-0.762,0.157-0.763,0.849-0.896,1.397
					C35.888,213.015,37.851,217.292,40.483,218.82z"/>
				<path fill="#E99D5E" d="M52.15,185.97c0.353-0.23,0.406-0.638,0.335-1.002c-0.465-2.342-0.723-4.748-2.014-6.848
					c-0.389-0.633-0.75-1.511-1.618-1.305c-1.045,0.248-0.749,1.302-0.857,2.045c0.175,2.723,1.653,4.797,3.188,6.843
					C51.419,186.016,51.757,186.228,52.15,185.97z"/>
				<path fill="#E89D5F" d="M34.837,223.611c0.566,0,1.161,0.327,1.881,0.722c-0.557-1.132-0.813-2.31-1.183-3.392
					C35.64,221.923,35.409,222.808,34.837,223.611z"/>
				<path fill="#E89D5F" d="M35.535,220.941c0.37,1.082,0.626,2.26,1.183,3.392c-0.72-0.395-1.314-0.722-1.881-0.722
					c-0.068,0.098-0.142,0.193-0.221,0.289c0.783,0.791,1.559,1.592,2.356,2.368c0.198,0.192,0.489,0.446,0.702,0.417
					c0.187-0.025,0.501-0.453,0.458-0.629c-0.73-2.983-1.303-6.05-3.821-8.205h0.002c0,0,0,0.001,0.001,0.002
					C35.029,218.981,35.434,220.005,35.535,220.941z"/>
				<path fill="#E89D5F" d="M34.598,223.632c0.079-0.014,0.16-0.021,0.239-0.021c0.572-0.803,0.803-1.688,0.698-2.67
					c-0.249-0.723-0.554-1.4-1.03-1.996C34.68,220.5,34.472,222.075,34.598,223.632z"/>
				<path fill="#E89D5F" d="M34.598,223.632c0.007,0.089,0.009,0.178,0.019,0.268c0.079-0.096,0.152-0.191,0.221-0.289
					C34.758,223.611,34.677,223.619,34.598,223.632z"/>
				<path fill="#E89D5F" d="M35.535,220.941c-0.102-0.936-0.506-1.96-1.221-3.088c-0.001-0.001,0-0.002,0-0.002
					c0.094,0.363,0.149,0.729,0.19,1.094C34.981,219.541,35.286,220.218,35.535,220.941z"/>
				<path fill="#E99D5E" d="M52.759,178.406c0.305,0.429,0.753,0.85,1.309,0.666c0.733-0.241,0.245-0.887,0.268-1.078
					c0.05-2.102-0.879-3.555-1.839-4.983c-0.25-0.373-0.644-0.673-1.143-0.462c-0.478,0.201-0.639,0.654-0.517,1.115
					C51.277,175.324,51.746,176.981,52.759,178.406z"/>
				<path fill="#98572A" d="M31.204,209.513c0.046-0.227,0.094-0.452,0.143-0.678c-0.01,0.021-0.019,0.044-0.029,0.066
					C31.226,209.097,31.198,209.302,31.204,209.513z"/>
				<path fill="#98572A" d="M31.782,207.117c0.139-0.454,0.308-0.9,0.514-1.336c-0.286-0.084-0.518-0.214-0.705-0.382
					C31.739,205.963,31.815,206.534,31.782,207.117z"/>
				<path fill="#98572A" d="M31.782,207.117c-0.032,0.559-0.166,1.13-0.436,1.719c-0.049,0.226-0.097,0.451-0.143,0.678
					c0.013,0.581,0.287,1.209,0.243,1.81c0.599-1.81,1.196-3.62,1.796-5.429c-0.367,0.005-0.681-0.035-0.947-0.113
					C32.09,206.216,31.921,206.663,31.782,207.117z"/>
				<path fill="#98572A" d="M30.95,203.179c-0.035,0.13-0.047,0.261-0.036,0.394c0.011,0.024,0.021,0.048,0.031,0.071
					C30.941,203.494,30.941,203.34,30.95,203.179z"/>
				<path fill="#98572A" d="M31.591,205.399c0.188,0.168,0.419,0.298,0.705,0.382c0.039-0.084,0.071-0.168,0.114-0.251
					c0.05-0.149,0.09-0.303,0.126-0.458c-0.438-0.383-0.921-0.727-1.255-1.196c-0.05,0.058-0.106,0.11-0.165,0.161
					C31.307,204.49,31.472,204.942,31.591,205.399z"/>
				<path fill="#98572A" d="M32.296,205.781c0.267,0.078,0.58,0.118,0.947,0.113c-0.177-0.325-0.432-0.582-0.707-0.822
					c-0.036,0.155-0.076,0.309-0.126,0.458C32.367,205.613,32.335,205.697,32.296,205.781z"/>
				<path fill="#98572A" d="M31.116,204.037c0.059-0.051,0.115-0.104,0.165-0.161c-0.145-0.204-0.266-0.427-0.331-0.696
					c-0.009,0.161-0.009,0.314-0.005,0.465C31.003,203.775,31.062,203.906,31.116,204.037z"/>
				<path fill="#98572A" d="M31.317,208.902c0.011-0.022,0.02-0.045,0.029-0.066c0.125-0.579,0.262-1.154,0.436-1.719
					c0.033-0.583-0.043-1.153-0.191-1.718c-0.338-0.305-0.526-0.737-0.604-1.263c-0.021,0.012-0.042,0.023-0.063,0.035
					c0.022,0.764,0.063,1.529-0.03,2.278c-0.177,1.409-0.532,2.816,0.08,4.122c0.081-0.352,0.155-0.705,0.229-1.059
					C31.198,209.302,31.226,209.097,31.317,208.902z"/>
				<path fill="#98572A" d="M31.204,209.513c-0.074,0.354-0.148,0.707-0.229,1.059c0.119,0.255,0.271,0.506,0.473,0.751
					C31.491,210.722,31.217,210.094,31.204,209.513z"/>
				<path fill="#98572A" d="M31.782,207.117c-0.174,0.564-0.311,1.14-0.436,1.719C31.616,208.247,31.75,207.675,31.782,207.117z"/>
				<path fill="#98572A" d="M30.925,204.171c0.021-0.012,0.041-0.023,0.063-0.035c-0.023-0.156-0.037-0.32-0.042-0.492
					c-0.011-0.023-0.021-0.047-0.031-0.071v0.001C30.914,203.771,30.921,203.971,30.925,204.171z"/>
				<path fill="#98572A" d="M31.116,204.037c-0.023,0.02-0.041,0.045-0.066,0.064c-0.021,0.012-0.041,0.023-0.063,0.035
					c0.077,0.525,0.266,0.958,0.604,1.263C31.472,204.942,31.307,204.49,31.116,204.037z"/>
				<path fill="#98572A" d="M31.116,204.037c-0.055-0.131-0.113-0.262-0.171-0.393c0.005,0.172,0.019,0.336,0.042,0.492
					c0.021-0.012,0.042-0.023,0.063-0.035C31.075,204.082,31.093,204.056,31.116,204.037z"/>
				<path fill="#9A5728" d="M3.148,168.331C3.148,168.33,3.148,168.33,3.148,168.331L3.148,168.331
					c-1.396,0.339-2.021,1.698-3.155,2.384c0.001,0.049,0,0.096,0.001,0.144c0.002,0.866,0.006,1.732,0.009,2.599l0,0
					c0.268,0.238,0.556,0.457,0.845,0.672c1.093,0.809,2.253,1.544,2.867,2.857c0.706-0.707,1.409-1.414,2.114-2.121
					c-1.433-1.703-1.639-3.911-2.405-5.889C3.337,168.757,3.25,168.542,3.148,168.331z"/>
				<path fill="#9A5728" d="M49.45,208.791c-0.25-0.09-0.521-0.182-0.83-0.28c-3.098,6.948-4.974,14.355-8.005,21.329
					c0.319-0.021,0.622-0.069,0.909-0.139c2.167-0.521,3.379-2.327,4.49-4.083c2.504-3.958,3.776-8.44,4.962-12.924
					C51.669,210.083,51.544,209.541,49.45,208.791z"/>
				<path fill="#9A5728" d="M21.405,204.119c0.003,0.192,0.004,0.384-0.006,0.573c-0.006,0.139-0.019,0.275-0.042,0.409
					c-0.054,0.297-0.159,0.58-0.375,0.839l0,0c-1.573,6.065-2.776,12.251-5.702,17.88c-0.049,0.094-0.094,0.188-0.144,0.281
					c-0.708,2.58-2.204,4.776-3.417,7.113c-0.283,0.547-1.057,1.719,0.309,1.613c1.935-0.148,3.945,0.273,5.82-0.528l0.001-0.001
					c0.007-0.238,0.015-0.479,0.023-0.717c0.172-5.146,0.628-10.25,2.269-15.183c0.035-0.192,0.081-0.378,0.133-0.559
					c0.403-1.386,1.323-2.438,2.526-3.185c1.19-0.738,1.859-1.715,2.127-3.013c0.325-1.588,0.61-3.184,0.907-4.777
					c0.045-0.245,0.089-0.492,0.135-0.737C24.447,204.391,22.929,203.156,21.405,204.119z"/>
			</g>
			<path fill="#FBE8D8" d="M34.598,223.632c-0.126-1.558,0.082-3.133-0.093-4.688c-0.041-0.365-0.097-0.73-0.191-1.094
				c-0.094-0.029-0.134-0.093-0.117-0.189c-0.23-0.043-0.459-0.082-0.688-0.119c-4.425-0.722-8.94-0.434-13.366-1.144
				c-1.641,4.933-2.097,10.036-2.269,15.183c-0.009,0.238-0.017,0.479-0.023,0.717l-0.001,0.001v0.001
				c0.281,0.461,0.738,0.448,1.189,0.44c4.732-0.091,9.458-0.255,14.137-1.05c0.063-0.01,0.126-0.018,0.188-0.029
				c0.629-0.718,0.634-1.631,0.78-2.498c0.292-1.742-0.188-3.555,0.474-5.264C34.606,223.81,34.604,223.721,34.598,223.632z"/>
		</g>
		<g>
			<path fill="#387D50" d="M112.196,129.66c1.061-0.654,0.604-1.855,0.199-2.713c-3.364-7.103-4.494-14.955-7.585-22.169
				c-2.836-6.617-6.52-12.582-12.499-16.601c-4.38-2.943-7.993-6.406-10.83-10.777c0.225-0.219,0.447-0.437,0.67-0.656
				c0,0,0,0,0-0.001l0.002,0c1.43,0.67,2.896,1.272,4.283,2.021c7.576,4.087,15.193,8.104,23.717,9.853
				c4.457,0.915,8.699,2.729,13.281,3.088c0.591,0.046,1.225,0.208,1.595-0.429c0.419-0.719,0.13-1.393-0.401-1.873
				c-0.807-0.726-1.628-1.493-2.576-1.987c-7.195-3.738-14.188-7.925-21.751-10.868c-5.094-1.983-9.939-4.444-14.868-6.743
				c-4.575-2.133-9.248-3.351-14.31-2.752c-1.45,0.171-2.733-0.213-3.923-1.043c-3.963-2.772-7.81-5.731-12.258-7.74
				c-0.326-0.147-0.703-0.391-0.281-1.107c2.242,0.799,4.551,1.592,6.837,2.441c5.284,1.961,10.604,3.662,16.164,4.83
				c6.373,1.339,12.808,1.078,19.195,1.667c7.181,0.663,14.454,0.344,21.687,0.432c0.896,0.011,1.92-0.05,2.143-1.159
				c0.268-1.336-0.869-1.57-1.781-1.945c-1.283-0.525-2.533-1.132-3.831-1.616c-4.465-1.665-8.332-4.649-12.929-5.978
				c-8.403-2.428-17.083-2.914-25.75-3.583c-3.765-0.291-7.541,0.434-11.218-0.198c-5.106-0.877-10.059-0.339-15.007,0.751
				c-1.455,0.321-2.666,0.197-3.963-0.541c-3.555-2.021-6.126-5.22-10.022-7.645c0.963,0.012,1.259-0.006,1.549,0.022
				c6.769,0.686,13.54,1.679,20.354,0.754c9.208-1.25,18.438-2.258,27.694-3.058c1.209-0.104,2.625-0.033,2.802-1.547
				c0.173-1.505-1.158-1.877-2.368-2.146c-0.772-0.171-1.544-0.346-2.311-0.542c-6.243-1.607-12.728-1.7-19.014-3.059
				c-11.304-2.44-22.199-1.596-32.427,4.273c-1.304,0.749-2.666,0.617-3.979-0.09c0.23,0.396,0.47,0.792,0.671,1.191
				c0.511,1.012,0.778,2.047,0.089,3.177c-0.084,0.139-0.178,0.279-0.295,0.42c2.275,2.4,5.113,4.038,7.848,5.823
				c3.41,2.228,5.614,5.104,5.736,9.456c0.071,2.542,0.61,5.124,1.299,7.587c3.578,12.848,10.824,23.896,17.553,35.182
				c1.414,2.373,3.172,4.544,4.813,6.777c0.4,0.546,0.95,1.138,1.743,0.773c0.79-0.363,0.708-1.171,0.557-1.825
				c-0.338-1.442-0.667-2.905-1.212-4.275c-2.951-7.438-6.345-14.685-8.15-22.574c-1.52-6.644-3.635-13.159-7.268-19.046
				c-0.188-0.308-0.38-0.715,0.209-1.063c2.179,1.22,4.354,2.598,6.663,3.694c4.458,2.115,6.466,6.154,7.709,10.413
				c2.269,7.764,3.786,15.735,7.276,23.136c2.949,6.254,5.584,12.656,8.406,18.972c0.312,0.697,0.898,1.294,1.441,1.861
				c0.433,0.453,1.018,0.635,1.587,0.164c0.436-0.36,0.548-0.908,0.302-1.347c-2.205-3.935-1.218-8.353-1.881-12.518
				c-1.349-8.474-1.774-17.138-6.017-24.906c-0.217-0.398-0.556-0.858,0.095-1.751c3.417,4.29,7.671,7.9,9.401,13.137
				c3.062,9.256,7.325,17.938,11.89,26.488c2.312,4.331,5.719,7.829,9.693,10.711C109.655,129.613,110.914,130.449,112.196,129.66z"
				/>
			<path fill="#387D50" d="M71.224,26.392c1.851-0.401,3.465-1.484,4.414-3.256c0.724-1.349,0.938-2.441-1.19-2.604
				c-1.667-0.127-3.315-0.486-4.972-0.752c-6.217-1-12.223-3.154-18.677-2.895c-7.02,0.281-13.948,1.209-20.883,2.184
				c0,0.001,0,0.001,0,0.002c0.202,0.291,0.356,0.584,0.483,0.881c1.003,2.361-0.129,4.889,0.108,7.313
				c0.108,1.124,0.115,2.317-0.487,3.303c-0.207,0.343-0.488,0.66-0.863,0.941c0.589,0.06,1.18,0.104,1.767,0.181
				c8.081,1.06,16.25,1.192,24.123-0.702C60.462,29.686,65.722,27.587,71.224,26.392z"/>
			<path fill="#387D50" d="M42.522,84.838c-1.654-7.815-3.35-15.623-7.759-22.478c-2.804-4.363-4.327-9.244-5.913-14.107
				c0,0,0,0.001,0,0.002c0.159,1.465,0.236,2.93,0.27,4.395c0.09,4.104-0.207,8.208-0.262,12.312
				c-0.018,1.332,0.158,2.806-1.072,3.759c-0.093,0.073-0.192,0.143-0.305,0.209c2.995,6.414,8.363,11.182,11.941,17.194
				c0.442,0.745,1.045,1.616,2.121,0.991C42.361,86.637,42.735,85.849,42.522,84.838z"/>
		</g>
		<g>
			<g>
				<path fill="#F8EAE7" d="M287.14,288.981c-0.045,0.076-0.09,0.151-0.135,0.228c-0.002,0.006-0.007,0.012-0.01,0.016
					c0.087,0.111,0.171,0.224,0.258,0.334C287.245,289.351,287.202,289.162,287.14,288.981z"/>
				<path fill="#DA9258" d="M258.146,217.429c0.059-0.053,0.119-0.105,0.179-0.158c-0.081-0.06-0.176-0.11-0.29-0.147l0,0
					C258.07,217.226,258.108,217.327,258.146,217.429z"/>
				<path fill="#DA9258" d="M299.302,221.615c0.018,0.062,0.035,0.123,0.049,0.185c0.075-0.125,0.15-0.249,0.226-0.374
					c-0.103,0.048-0.193,0.102-0.282,0.158C299.296,221.593,299.3,221.603,299.302,221.615z"/>
				<path fill="#DA9258" d="M253.269,222.907c0.042-0.046,0.081-0.095,0.125-0.14c0.018-0.026,0.037-0.053,0.058-0.078
					c-0.081-0.092-0.154-0.186-0.233-0.275C253.185,222.602,253.212,222.761,253.269,222.907z"/>
				<path fill="#DA9258" d="M253.624,250.806c-0.057,0.117-0.106,0.24-0.145,0.373l0,0c0.082-0.084,0.167-0.166,0.253-0.246
					C253.696,250.891,253.661,250.848,253.624,250.806z"/>
				<path fill="#DA9359" d="M233.059,233.146c-0.026-0.006-0.051-0.014-0.078-0.019l0,0c0.022,0.021,0.042,0.041,0.063,0.062
					C233.049,233.174,233.053,233.16,233.059,233.146z"/>
				<path fill="#DA9359" d="M248.591,227.006c0.083-0.091,0.167-0.183,0.255-0.276c-0.151,0.088-0.287,0.171-0.413,0.253
					C248.485,226.992,248.538,227,248.591,227.006z"/>
				<path fill="#DA9359" d="M235.873,235.177c-0.054-0.031-0.106-0.065-0.156-0.1c-0.011,0.129-0.017,0.258-0.007,0.387
					c0.074-0.085,0.14-0.169,0.2-0.254C235.898,235.199,235.886,235.189,235.873,235.177z"/>
				<path fill="#DBCBC5" d="M309.592,227.33c-0.042,0.004-0.081,0.006-0.122,0.009c0.038,0.007,0.074,0.017,0.111,0.023
					C309.585,227.351,309.587,227.341,309.592,227.33z"/>
				<path fill="#DBCBC5" d="M320.596,234.017c-0.114-0.081-0.223-0.168-0.333-0.252c-0.021,0.035-0.041,0.072-0.063,0.107
					C320.328,233.923,320.46,233.972,320.596,234.017z"/>
				<path fill="#DBCBC5" d="M320.2,233.873c0.021-0.035,0.042-0.072,0.063-0.107c-1.323-1.018-2.403-2.289-3.549-3.492h0.001
					c-0.028-0.018-0.053-0.031-0.079-0.048c-0.434-0.267-0.907-0.49-1.274-0.827c-1.645-1.515-3.542-2.252-5.77-2.068
					c-0.005,0.012-0.007,0.021-0.011,0.032c-0.037-0.007-0.073-0.017-0.111-0.023l0,0c-1.243,0.295-2.204,1.001-2.949,2.021
					c0,0.016,0.002,0.031,0.002,0.048c-0.018,0.006-0.032,0.016-0.048,0.023c-0.662,0.998-0.521,1.799,0.644,2.346
					c0.063-0.05,0.129-0.097,0.196-0.144c0.173-0.124,0.352-0.243,0.48-0.403c1.712-2.154,3.813-2.375,5.871-0.619
					c1.888,1.612,3.726,3.28,5.421,5.096c0.099,0.105,0.197,0.209,0.295,0.315v-0.001c0.402-0.668,0.81-1.336,1.214-2.004
					C320.46,233.972,320.328,233.923,320.2,233.873z"/>
				<path fill="#DBCBC5" d="M306.522,229.408c0-0.017-0.002-0.032-0.002-0.048c-0.018,0.024-0.031,0.047-0.046,0.071
					C306.49,229.423,306.505,229.414,306.522,229.408z"/>
				<path fill="#DA9359" d="M299.294,221.583c0.089-0.057,0.18-0.11,0.282-0.158c-0.444-1.971-1.682-3.506-2.872-5.041
					c-2.992-3.858-5.953-7.746-9.348-11.273c-0.137,0.022-0.314-0.035-0.5-0.111c-0.153-0.174-0.31-0.35-0.463-0.525
					c0.314,0.129,0.653,0.498,0.963,0.637c-3.033-3.721-6.19-7.311-10.311-9.898c-0.731-0.491-1.475-0.93-2.338-1.189
					c-1.855-0.558-2.585-0.24-3.225,1.587c-0.338,0.964-0.623,1.946-0.935,2.921c-0.02,0.15-0.035,0.301-0.052,0.452
					c-0.361,3.288,0.101,6.535,0.725,9.747c0.262,1.348-0.09,1.869-1.378,1.922c-0.203,0.009-0.407,0.037-0.609,0.063
					c-0.038,0.005-0.077,0.009-0.115,0.014c-0.603,0.185-1.205,0.37-1.808,0.556c-3.621,1.105-6.59,3.25-9.277,5.839
					c0.114,0.037,0.209,0.088,0.29,0.147c-0.06,0.053-0.12,0.105-0.179,0.158c0.978,2.727,2.17,5.336,3.828,7.741
					c1.094,1.587,2.496,2.302,4.383,2.1c2.742-0.292,5.383,0.214,7.98,1.017c2.018,0.623,4.02,1.286,6.038,1.898
					c5.585,1.691,10.774,1.396,15.2-2.953c1.61-1.582,2.651-3.532,3.775-5.433c-0.014-0.062-0.031-0.123-0.049-0.185
					C299.3,221.603,299.296,221.593,299.294,221.583z M271.321,224.822c-0.496,0.763-2.195,1.078-2.959,0.512
					c-0.734-0.545-1.117-1.277-0.523-2.163c0.498-0.747,2.123-0.933,3.082-0.308C271.492,223.341,271.866,223.988,271.321,224.822z
					 M283.802,212.396c-1.734-0.043-3.42-0.411-5.004-1.073c-1.919-0.803-2.65-2.53-2.95-4.446
					c-0.243-1.545-0.378-3.106-0.546-4.662c-0.152-1.404,0.186-2.529,1.73-2.938c0.104,0.019,0.203,0.041,0.305,0.064
					c1.746,0.419,2.93,1.634,3.965,3.019c1.076,1.438,2.098,2.916,3.142,4.379c0.031,0.043,0.062,0.088,0.093,0.132
					c0.441,1.179,1.285,2.204,1.237,3.57C285.726,211.816,285.161,212.43,283.802,212.396z"/>
				<path fill="#DA9359" d="M286.394,204.474c0.153,0.176,0.31,0.352,0.463,0.525c0.186,0.076,0.363,0.134,0.5,0.111
					C287.047,204.972,286.708,204.603,286.394,204.474z"/>
				<path fill="#508847" d="M270.624,207.341c-0.383-2.408-0.816-4.82-0.494-7.282c0.026-0.198,0.045-0.398,0.076-0.593
					c-1.136,2.018-1.332,4.278-1.338,6.589c-0.005,1.546,0.309,3.068,0.364,4.612C271.03,209.691,270.991,209.646,270.624,207.341z"
					/>
				<path fill="#508847" d="M268.868,206.055c0.006-2.311,0.202-4.571,1.338-6.589c0.049-0.33,0.133-0.649,0.343-0.936
					c-0.562,0.135-0.742,0.645-0.906,1.068c-1.415,3.646-1.512,7.365-0.523,11.13c0.04-0.022,0.074-0.041,0.113-0.062
					C269.177,209.124,268.863,207.601,268.868,206.055z"/>
				<path fill="#508847" d="M271.222,208.73c-0.624-3.212-1.086-6.459-0.725-9.747c-0.104,0.159-0.2,0.319-0.291,0.483
					c-0.031,0.194-0.05,0.395-0.076,0.593c-0.322,2.462,0.111,4.874,0.494,7.282c0.367,2.305,0.406,2.35-1.392,3.326
					c0,0.016,0.002,0.031,0.002,0.048c0.202-0.026,0.406-0.055,0.609-0.063C271.132,210.599,271.483,210.078,271.222,208.73z"/>
				<path fill="#508847" d="M269.232,210.667c-0.039,0.021-0.073,0.039-0.113,0.062c0.038-0.005,0.077-0.009,0.115-0.014
					C269.234,210.699,269.232,210.683,269.232,210.667z"/>
				<path fill="#508847" d="M270.206,199.466c0.091-0.164,0.187-0.324,0.291-0.483c0.017-0.151,0.032-0.302,0.052-0.452
					C270.339,198.817,270.255,199.136,270.206,199.466z"/>
				<path fill="#DA9258" d="M233.06,230.906c-0.088-0.078-0.174-0.163-0.256-0.262l0,0c0.056,0.18,0.11,0.357,0.162,0.529
					C232.985,231.083,233.014,230.994,233.06,230.906z"/>
				<path fill="#DA9258" d="M233.739,229.869c-0.207,0.084-0.413,0.17-0.623,0.24c0.121,0.049,0.238,0.076,0.357,0.09
					C233.556,230.082,233.646,229.972,233.739,229.869z"/>
				<path fill="#DBCBC5" d="M305.102,259.003c-0.041-1.947-0.616-3.733-1.892-5.297c-1.116-1.371-2.415-2.567-3.908-3.51
					c-2.191-1.385-4.383-2.785-6.814-3.744c-0.15-0.038-0.301-0.076-0.449-0.113c-1.023-0.256-2.044-0.512-3.064-0.766
					c-0.126-0.032-0.256-0.064-0.381-0.096c-0.585-0.043-1.169-0.089-1.752-0.127c-2.655-0.172-5.026,0.42-6.847,2.521
					c-1.089,1.259-1.333,2.896-1.98,4.353c0.007,0.052,0.011,0.103,0.016,0.153c0.128,1.368-0.269,2.74-0.03,4.109
					c0.015,0.082,0.03,0.164,0.05,0.246l0,0l0,0c0.12,1.36,0.913,1.001,1.696,0.662c0.03-0.049,0.057-0.097,0.081-0.145
					c0.259-0.486,0.256-1.016,0.24-1.561c-0.041-1.331,0.043-2.66,0.391-3.948c0.756-2.815,2.303-4.318,5.189-4.271
					c6.669,0.107,12.027,3.092,16.276,8.141c0.498,0.591,0.824,1.332,0.963,2.126c0.633,3.646-2.648,5.104-5.092,4.653
					c-1.908-0.353-3.635-1.135-5.276-2.152c-0.515-0.32-1.046-0.924-1.724-0.441c-0.623,0.441-0.625,1.164-0.616,1.877
					c0.012,1.109,0.243,2.236-0.026,3.332c-0.047,0.192-0.107,0.385-0.189,0.574c0.039,0.289,0.067,0.581,0.121,0.868
					c0.134,0.718,0.586,1.194,1.298,1.167c0.856-0.032,0.89-0.781,0.92-1.424c0.04-0.83,0.087-1.666,0.031-2.492
					c-0.058-0.851,0.076-1.059,0.938-0.635c3.009,1.48,6.051,2.15,9.1,0.523c0.253-0.137,0.508-0.282,0.761-0.45v-0.001
					c0.652-1.09,1.304-2.182,1.956-3.273l0,0C305.103,259.574,305.108,259.287,305.102,259.003z"/>
				<path fill="#F3E9E7" d="M318.935,235.961c-0.004,0.007-0.008,0.013-0.012,0.019c0.131,0.05,0.281,0.07,0.459,0.042
					c-0.098-0.106-0.196-0.21-0.295-0.315C319.036,235.792,318.987,235.877,318.935,235.961z"/>
				<path fill="#F3E9E7" d="M307.38,231.792c-0.022-0.052-0.041-0.106-0.065-0.158c-0.067,0.047-0.134,0.094-0.196,0.144
					C307.212,231.796,307.298,231.798,307.38,231.792z"/>
				<path fill="#DBCBC5" d="M313.113,245.656c0.117,0.086,0.229,0.174,0.349,0.258l0,0c-0.051-0.177-0.136-0.324-0.237-0.459
					C313.188,245.522,313.151,245.589,313.113,245.656z"/>
				<g>
					<polygon fill="#DBCBC5" points="314.508,244.162 314.508,244.162 314.508,244.162 					"/>
					<path fill="#DBCBC5" d="M314.021,244.134c0.051-0.078,0.102-0.158,0.155-0.235c-1.483-1.182-2.693-2.635-3.913-4.071
						c-0.4-0.473-0.801-0.85-1.421-0.887c0.004,0.043,0.009,0.088,0.013,0.131c-0.053-0.046-0.102-0.094-0.154-0.139
						c-0.875,0.447-0.914,1.143-0.389,1.822c1.403,1.824,2.943,3.523,4.802,4.9c0.038-0.066,0.075-0.134,0.111-0.201
						c0.102,0.135,0.187,0.282,0.237,0.459c0.348-0.585,0.696-1.168,1.046-1.752C314.326,244.188,314.166,244.174,314.021,244.134z"
						/>
				</g>
				<path fill="#DBCBC5" d="M314.021,244.134c0.146,0.04,0.306,0.054,0.487,0.027l0,0c-0.114-0.086-0.224-0.176-0.332-0.263
					C314.122,243.976,314.071,244.056,314.021,244.134z"/>
				<path fill="#DBCBC5" d="M308.842,238.941c-0.047-0.004-0.091-0.009-0.142-0.008c0.053,0.045,0.102,0.093,0.154,0.139
					C308.851,239.029,308.846,238.984,308.842,238.941z"/>
				<g>
					<polygon fill="#F3E9E7" points="258.034,217.124 258.034,217.124 258.034,217.124 					"/>
					<path fill="#F3E9E7" d="M308.842,238.941c0.62,0.037,1.021,0.414,1.421,0.887c1.22,1.437,2.43,2.89,3.913,4.071
						c0.108,0.087,0.218,0.177,0.332,0.263c1.625-2.713,3.249-5.427,4.874-8.14c-0.178,0.028-0.328,0.008-0.459-0.042
						c0.004-0.006,0.008-0.012,0.012-0.019c0.053-0.084,0.102-0.169,0.152-0.255c-1.695-1.815-3.533-3.483-5.421-5.096
						c-2.058-1.756-4.159-1.535-5.871,0.619c-0.129,0.16-0.308,0.279-0.48,0.403c0.024,0.052,0.043,0.106,0.065,0.158
						c-0.082,0.007-0.168,0.005-0.262-0.015c-1.164-0.547-1.306-1.348-0.644-2.346c0.015-0.024,0.028-0.047,0.046-0.071
						c-0.913-0.468-1.846-0.901-2.734-1.411c-1.81-1.036-3.697-1.994-3.615-4.584c0.021-0.64-0.387-1.293-0.595-1.939
						c-0.075,0.125-0.15,0.249-0.226,0.374c-1.124,1.9-2.165,3.851-3.775,5.433c-4.426,4.35-9.615,4.645-15.2,2.953
						c-2.019-0.612-4.021-1.275-6.038-1.898c-2.598-0.803-5.238-1.309-7.98-1.017c-1.887,0.202-3.289-0.513-4.383-2.1
						c-1.658-2.405-2.851-5.015-3.828-7.741c-0.037-0.103-0.075-0.203-0.111-0.306c-1.994,1.409-3.464,3.297-4.816,5.29
						c0.079,0.09,0.152,0.184,0.233,0.275c2.594,3.009,4.632,6.373,6.12,10.053c0.633,1.564,0.688,3.275,0.359,4.927
						c-0.772,3.876-1.492,7.78-3.91,11.091c-0.638,0.874-1.525,1.453-2.288,2.174c-0.086,0.08-0.171,0.162-0.253,0.246
						c2.424,3.049,5.197,5.621,9.09,6.682c0.263,0.071,0.518,0.281,0.711,0.488c5.397,5.83,10.887,11.572,15.136,18.361
						c2.685,4.288,5.46,8.521,8.579,12.514c0.003-0.004,0.008-0.01,0.01-0.016c0.045-0.076,0.09-0.151,0.135-0.228
						c0.063,0.181,0.105,0.37,0.113,0.577c5.293-8.807,10.586-17.612,15.878-26.419c-0.253,0.168-0.508,0.313-0.761,0.45
						c-3.049,1.627-6.091,0.957-9.1-0.523c-0.862-0.424-0.996-0.216-0.938,0.635c0.056,0.826,0.009,1.662-0.031,2.492
						c-0.03,0.643-0.063,1.392-0.92,1.424c-0.712,0.027-1.164-0.449-1.298-1.167c-0.054-0.287-0.082-0.579-0.121-0.868
						c0-0.329-0.012-0.656-0.027-0.984c0.084,0.123,0.159,0.259,0.217,0.41c0.27-1.096,0.038-2.223,0.026-3.332
						c-0.009-0.713-0.007-1.436,0.616-1.877c0.678-0.482,1.209,0.121,1.724,0.441c1.642,1.018,3.368,1.8,5.276,2.152
						c2.443,0.451,5.725-1.008,5.092-4.653c-0.139-0.794-0.465-1.535-0.963-2.126c-4.249-5.049-9.607-8.033-16.276-8.141
						c-2.887-0.048-4.434,1.455-5.189,4.271c-0.348,1.288-0.432,2.617-0.391,3.948c0.016,0.545,0.019,1.074-0.24,1.561
						c0.049,0.002,0.098,0.008,0.144,0.013c-0.066,0.048-0.14,0.093-0.225,0.132c-0.783,0.339-1.576,0.698-1.696-0.662l0,0
						c-0.714-0.348-1.312,0.023-1.94,0.29c-2.518,1.071-5.191,1.196-8.051,0.272c3.379-1.926,6.672-3.492,9.956-5.071
						c0.647-1.456,0.892-3.094,1.98-4.353c1.82-2.102,4.191-2.693,6.847-2.521c0.583,0.038,1.167,0.084,1.752,0.127
						c3.019-2.359,5.645-5.074,7.755-8.294c0.714-1.091,1.769-1.959,2.016-3.341c0.052-0.283,0.337-0.55,0.662-0.447
						c0.439,0.137,0.536,0.548,0.471,0.959c-0.208,1.311-0.679,2.529-1.284,3.711c-1.442,2.813-3.55,5.122-5.607,7.469
						c-0.28,0.322-0.606,0.54-0.117,0.918c2.432,0.959,4.623,2.359,6.814,3.744c1.493,0.942,2.792,2.139,3.908,3.51
						c1.275,1.563,1.851,3.35,1.892,5.297c0.007,0.283,0.001,0.57-0.015,0.861c2.791-4.65,5.582-9.302,8.375-13.951
						c-0.12-0.084-0.231-0.172-0.349-0.258c-1.858-1.377-3.398-3.076-4.802-4.9c-0.525-0.68-0.486-1.375,0.389-1.822
						C308.751,238.932,308.795,238.937,308.842,238.941z M269.112,237.574c-2.145-0.572-2.155-0.571-2.609,1.658
						c-0.097,0.471-0.213,0.889-0.786,0.867c-0.686-0.025-0.755-0.557-0.712-1.057c0.069-0.777,0.292-1.547,0.304-2.321
						c0.011-0.869-0.093-1.692-1.416-1.333c-0.88,0.238-1.642-0.22-2.122-0.986c-0.44-0.701-0.258-1.411,0.146-2.08
						c0.548-0.822,1.311-1.32,2.288-1.438c1.481-0.177,2.553,0.959,2.066,2.363c-0.473,1.365,0.158,1.912,1.26,2.283
						c0.649,0.219,1.326,0.354,1.969,0.59c0.513,0.188,1.296,0.268,0.988,1.125C270.234,237.954,269.638,237.714,269.112,237.574z"
						/>
				</g>
				<path fill="#F3E9E7" d="M289.935,264.597c0.016,0.328,0.027,0.655,0.027,0.984c0.082-0.189,0.143-0.382,0.189-0.574
					C290.094,264.856,290.019,264.72,289.935,264.597z"/>
				<path fill="#F3E9E7" d="M279.826,257.251c-0.024,0.048-0.051,0.096-0.081,0.145c0.085-0.039,0.158-0.084,0.225-0.132
					C279.924,257.259,279.875,257.253,279.826,257.251z"/>
				<path fill="#E7D8D1" d="M298.212,238.066c0.605-1.182,1.076-2.4,1.284-3.711c0.065-0.411-0.031-0.822-0.471-0.959
					c-0.325-0.103-0.61,0.164-0.662,0.447c-0.247,1.382-1.302,2.25-2.016,3.341c-2.11,3.22-4.736,5.935-7.755,8.294
					c0.231-0.046,0.456-0.068,0.678-0.074c-0.096,0.061-0.196,0.115-0.297,0.17c1.021,0.254,2.041,0.51,3.064,0.766
					c-0.029-0.061-0.051-0.119-0.064-0.178c0.173,0.094,0.345,0.189,0.514,0.291c-0.489-0.378-0.163-0.596,0.117-0.918
					C294.662,243.188,296.77,240.879,298.212,238.066z"/>
				<path fill="#E7D8D1" d="M289.271,245.404c-0.222,0.006-0.446,0.028-0.678,0.074c0.125,0.031,0.255,0.063,0.381,0.096
					C289.074,245.519,289.175,245.464,289.271,245.404z"/>
				<path fill="#E7D8D1" d="M292.038,246.339c0.148,0.037,0.299,0.075,0.449,0.113c-0.169-0.102-0.341-0.197-0.514-0.291
					C291.987,246.22,292.009,246.279,292.038,246.339z"/>
				<path fill="#E7D8D1" d="M277.901,256.433c0.032,0.016,0.064,0.034,0.098,0.055c-0.238-1.369,0.158-2.741,0.03-4.109
					c-0.024,0.016-0.048,0.029-0.069,0.046c0.018-0.067,0.035-0.134,0.054-0.199c-3.284,1.579-6.577,3.146-9.956,5.071
					c2.859,0.924,5.533,0.799,8.051-0.272c0.629-0.267,1.227-0.638,1.94-0.29C277.994,256.633,277.945,256.533,277.901,256.433z"/>
				<path fill="#E7D8D1" d="M277.999,256.488c-0.033-0.021-0.065-0.039-0.098-0.055c0.044,0.1,0.093,0.2,0.147,0.301l0,0
					C278.029,256.652,278.014,256.57,277.999,256.488z"/>
				<path fill="#E7D8D1" d="M278.029,252.378c-0.005-0.051-0.009-0.102-0.016-0.153c-0.019,0.065-0.036,0.132-0.054,0.199
					C277.981,252.408,278.005,252.394,278.029,252.378z"/>
				<path fill="#E0C597" d="M285.773,210.44c0.048-1.366-0.796-2.392-1.237-3.57c-0.039-0.003-0.076-0.014-0.115-0.022
					c0.007-0.037,0.014-0.074,0.022-0.109c-1.044-1.463-2.065-2.941-3.142-4.379c-1.035-1.385-2.219-2.6-3.965-3.019
					c-0.02,0.024-0.04,0.048-0.06,0.071c-0.082-0.045-0.161-0.093-0.245-0.136c-1.545,0.409-1.883,1.534-1.73,2.938
					c0.168,1.556,0.303,3.117,0.546,4.662c0.3,1.916,1.031,3.644,2.95,4.446c1.584,0.662,3.27,1.03,5.004,1.073
					C285.161,212.43,285.726,211.816,285.773,210.44z"/>
				<path fill="#E0C597" d="M284.421,206.847c0.039,0.009,0.076,0.02,0.115,0.022c-0.031-0.044-0.062-0.089-0.093-0.132
					C284.435,206.773,284.428,206.81,284.421,206.847z"/>
				<path fill="#E0C597" d="M277.337,199.34c-0.102-0.023-0.2-0.046-0.305-0.064c0.084,0.043,0.163,0.091,0.245,0.136
					C277.297,199.388,277.317,199.365,277.337,199.34z"/>
				<path fill="#E0C597" d="M248.614,231.166c-0.054-0.048-0.109-0.092-0.163-0.138c0.022-0.046,0.043-0.091,0.061-0.136
					c-0.368-0.893-1.126-1.418-2.015-1.559c-2.479-0.393-4.992-0.536-7.481-0.135c-1.899,0.305-2.798,1.828-2.163,3.322
					c0.039,0.012,0.076,0.022,0.113,0.033c0.003,0.075,0.004,0.148,0.011,0.226c1.499,1.255,2.947,2.573,4.694,3.501
					c1.886,0.999,3.889,0.674,5.131-1C247.704,234.066,248.564,232.781,248.614,231.166z"/>
				<path fill="#E0C597" d="M248.614,231.166L248.614,231.166c-0.027-0.096-0.065-0.184-0.103-0.273
					c-0.018,0.045-0.038,0.09-0.061,0.136C248.505,231.074,248.561,231.118,248.614,231.166z"/>
				<path fill="#E0C597" d="M236.966,232.554c-0.037-0.011-0.074-0.021-0.113-0.033c0.037,0.087,0.077,0.174,0.124,0.259
					C236.97,232.703,236.969,232.629,236.966,232.554z"/>
				<path fill="#DA9258" d="M259.931,237.668c0.329-1.651,0.273-3.362-0.359-4.927c-1.488-3.68-3.526-7.044-6.12-10.053
					c-0.021,0.025-0.04,0.052-0.058,0.078c-0.044,0.045-0.083,0.094-0.125,0.14c-0.057-0.146-0.084-0.305-0.051-0.493
					c-1.005,0.84-1.631,1.973-2.199,3.104c-0.489,0.97-1.116,1.402-2.173,1.213c-0.088,0.094-0.172,0.186-0.255,0.276
					c-0.053-0.007-0.105-0.015-0.158-0.023c0.126-0.082,0.262-0.165,0.413-0.253c-3.577-0.817-7.15-0.572-10.636,0.363
					c-1.918,0.514-3.854,1.244-5.094,3.016c0.21-0.07,0.416-0.156,0.623-0.24c-0.094,0.104-0.184,0.213-0.266,0.33
					c-0.119-0.014-0.236-0.041-0.357-0.09c-0.104,0.178-0.207,0.356-0.313,0.535l0,0l0,0c0.082,0.099,0.168,0.184,0.256,0.262
					c-0.046,0.088-0.074,0.178-0.094,0.268c-0.052-0.172-0.106-0.35-0.162-0.529c-0.52,0.869-0.115,1.672,0.177,2.483l0,0
					c0.027,0.005,0.052,0.013,0.078,0.019c-0.006,0.014-0.01,0.028-0.015,0.043c0.834,0.822,1.623,1.696,2.666,2.275
					c-0.01-0.129-0.004-0.258,0.007-0.387c0.05,0.034,0.103,0.068,0.156,0.1c0.013,0.012,0.025,0.021,0.037,0.033
					c-0.061,0.085-0.126,0.169-0.2,0.254c3.328,3.259,7.34,5.312,11.783,6.545c0.854,0.236,1.26,0.633,1.64,1.404
					c1.306,2.665,2.169,5.588,4.347,7.767v-0.001l0,0c0.038-0.133,0.088-0.256,0.145-0.373c0.037,0.042,0.072,0.085,0.108,0.127
					c0.763-0.721,1.65-1.3,2.288-2.174C258.438,245.449,259.158,241.544,259.931,237.668z M246.802,235.281
					c-1.242,1.674-3.245,1.999-5.131,1c-1.747-0.928-3.195-2.246-4.694-3.501c-0.047-0.085-0.087-0.172-0.124-0.259
					c-0.635-1.494,0.264-3.018,2.163-3.322c2.489-0.401,5.003-0.258,7.481,0.135c0.889,0.141,1.646,0.666,2.015,1.559
					c0.037,0.09,0.075,0.178,0.103,0.273l0,0C248.564,232.781,247.704,234.066,246.802,235.281z M257.683,237.134
					c-0.416,0.586-1.024,1.043-1.731,0.49c-0.92-0.719-0.864-1.697-0.364-2.631c0.385-0.715,1.018-1.02,1.74-0.734
					C258.093,234.715,258.276,236.295,257.683,237.134z"/>
			</g>
			<path fill="#523932" d="M269.499,236.121c-0.643-0.235-1.319-0.371-1.969-0.59c-1.102-0.371-1.732-0.918-1.26-2.283
				c0.486-1.404-0.585-2.54-2.066-2.363c-0.978,0.117-1.74,0.615-2.288,1.438c-0.403,0.669-0.586,1.379-0.146,2.08
				c0.48,0.767,1.242,1.225,2.122,0.986c1.323-0.359,1.427,0.464,1.416,1.333c-0.012,0.774-0.234,1.544-0.304,2.321
				c-0.043,0.5,0.026,1.031,0.712,1.057c0.573,0.021,0.689-0.396,0.786-0.867c0.454-2.229,0.465-2.23,2.609-1.658
				c0.525,0.141,1.122,0.38,1.375-0.328C270.795,236.388,270.012,236.308,269.499,236.121z"/>
			<path fill="#523932" d="M268.362,225.333c0.764,0.566,2.463,0.251,2.959-0.512c0.545-0.834,0.171-1.48-0.4-1.959
				c-0.959-0.625-2.584-0.439-3.082,0.308C267.245,224.056,267.628,224.789,268.362,225.333z"/>
			<path fill="#523932" d="M257.327,234.259c-0.723-0.285-1.355,0.02-1.74,0.734c-0.5,0.934-0.556,1.912,0.364,2.631
				c0.707,0.553,1.315,0.096,1.731-0.49C258.276,236.295,258.093,234.715,257.327,234.259z"/>
			<path fill="#518747" d="M278.416,276.71c-4.249-6.789-9.738-12.531-15.136-18.361c-0.193-0.207-0.448-0.417-0.711-0.488
				c-3.893-1.061-6.666-3.633-9.09-6.682v0.001c-2.178-2.179-3.041-5.102-4.347-7.767c-0.38-0.771-0.786-1.168-1.64-1.404
				c-4.443-1.233-8.455-3.286-11.783-6.545c-1.043-0.579-1.832-1.453-2.666-2.275c-0.021-0.021-0.041-0.041-0.063-0.062
				c-2.522,1.149-3.163,3.227-1.344,4.942c4.06,3.827,8.542,7.023,14.095,8.339c0.838,0.198,1.251,0.655,1.531,1.359
				c1.287,3.249,2.789,6.354,5.244,8.933c2.04,2.143,4.098,4.213,7.023,5.113c0.945,0.291,1.775,0.73,2.455,1.489
				c2.122,2.37,4.289,4.7,6.425,7.058c6.052,6.689,10.345,14.624,15.536,21.924c0.422,0.252,0.845,0.506,1.267,0.759
				c0.681-1.161,1.36-2.323,2.04-3.485c-0.087-0.11-0.171-0.223-0.258-0.334C283.876,285.232,281.101,280.999,278.416,276.71z"/>
		</g>
		<g>
			<path fill="#1FA269" d="M257.397,277.225c-1.152,4.021-3.953,7.273-3.953,7.273c-1.174,1.472-5.165,3.296-5.165,3.296
				c-4.437,3.462-4.121,6.147-4.121,6.147c-0.28,3.437,2.544,9.018,2.544,9.018c2.381,4.079,3.03,7.948,3.03,7.948
				c7.288-11.144,11.783-23.775,11.783-23.775c-0.593-0.746-2.09-4.664-2.09-4.664l-0.244-0.961l-0.229-3.111
				C258.766,275.285,257.397,277.225,257.397,277.225z"/>
			<path fill="#1FA269" d="M198.465,317.744c3.794-1.67,8.851-2.54,8.851-2.54c4.378-0.089,7.555,1.225,7.555,1.225
				c1.996,0.481,5.637,3.563,5.637,3.563c4.889,2.536,8.893,1.308,8.893,1.308c3.428-0.872,8.145-2.249,8.145-2.249
				c4.174-1.15,6.456,0.334,6.456,0.334c1.844-1.62,2.62-3.584,2.62-3.584c-1.783-1.697-7.478-6.537-7.478-6.537
				c-2.586-1.768-8.834-6.977-8.834-6.977c-0.814-1.742,0.327-4.141,0.327-4.141c1.053-1.952,5.972-4.854,5.972-4.854
				c5.891-3.418,4.79-9.955,4.79-9.955c0.873-6.075,4.12-8.584,4.12-8.584c2.175-2.411,0.877-2.157,0.877-2.157
				c-0.846,0.555-11.499,2.697-11.499,2.697c-9.742,2.303-9.309,9.642-9.309,9.642c-0.539,2.229,1.438,14.89,1.438,14.89
				l-0.237-0.14c-0.562-0.445-5.841-5.916-5.841-5.916c-1.569-0.939-5.942-8.337-5.942-8.337
				c-1.789-1.837-4.194-10.249-4.194-10.249l0.624-0.188c2.392,0.278,5.387-3.402,5.387-3.402c1.48-1.144,5.813-5.164,5.813-5.164
				c1.628-1.781,6.69-1.611,6.69-1.611c2.723,0.796,3.194-0.231,3.194-0.231c0.091-0.445-1.62-1.844-1.62-1.844
				c-4.661-3.953-12.235-1.744-12.235-1.744c-3.751,1.262-6.772,4.796-6.772,4.796c-1.208,1.071-1.667,3.742-1.667,3.742
				l-0.152-0.796c-0.414-1.65,1.154-7.77,1.154-7.77c0.37-3.447,4.813-8.629,4.813-8.629c2.507-2.59,9.263-2.793,9.263-2.793
				c0.969-0.031,7.161-0.109,7.161-0.109c3.748-0.04,6.036-0.916,6.036-0.916c3.911-0.867,6.634-5.824,6.634-5.824
				c0.528-2.482-1.918-0.652-1.918-0.652c-1.14,0.564-2.926,0.687-3.896,0.676c-0.97-0.01-4.404-0.697-4.404-0.697l-4.842-1.104
				c-4.508-1.283-8.164,1.576-8.164,1.576l-2.046,1.838l-0.108-0.756c0.77-2.216-2.748-14.235-2.748-14.235
				c0.078-2.784,1.98-7.692,1.98-7.692c2.958-6.123,0.346-8.649,0.405-9.41c-2.222-4.771-3.301-1.703-3.301-1.703
				c0.605,3.014-2.263,6.775-2.263,6.775c-3.449,3.949-6.188,7.83-6.188,7.83c-2.006,4.322,1.74,9.298,1.74,9.298
				c1.141,1.395,6.324,6.491,6.324,6.491c2.348,2.197,2.371,5.483,2.371,5.483c-1.691,2.331-3.712,6.232-3.712,6.232l-0.142-0.458
				c0.281-6.752-7.797-10.758-7.797-10.758c-4.816-2.176-9.201-5.072-9.201-5.072c-3.727-3.08-4.338-6.262-4.338-6.262
				c-0.354-3.022-1.582-1.971-1.582-1.971c-1.546,2.959,0.357,8.248,0.357,8.248c1.543,4.625,10.879,10.428,10.879,10.428
				c4.395,1.666,8.97,6.191,8.97,6.191c1.355,1.515,0.681,2.76,0.681,2.76c-3.261,4.616-3.404,15.576-3.404,15.576
				c-3.02-0.869-9.342-8.582-9.342-8.582c-3.315-9.793-16.741-15.67-16.741-15.67c-6.366-2.613-7.782-2.145-7.782-2.145
				c0.608,0.57,3.977,4.293,3.977,4.293c1.498,1.973,1.523,7.871,1.523,7.871c0.838,7.474,7.713,10.238,7.713,10.238
				c6.962,1.539,15.965,7.52,15.965,7.52c3.77,1.814,7.231,5.871,7.231,5.871c0.056,0.378,3.515,6.879,3.515,6.879
				c1.289,2.021,2.531,3.92,2.531,3.92c-2.729-2.229-14.854-8.273-14.854-8.273c-7.731-4.465-11.088-4.016-11.088-4.016
				c-3.699,0.29-6.729,4.225-6.729,4.225c-2.717,3.25-4.137,3.634-4.137,3.634c-2.02,1.373-0.956,1.634-0.956,1.634
				c0.979,0.346,5.458-0.602,5.458-0.602c3.586-1.131,5.52,1.25,5.52,1.25c1.336,0.925,2.846,3.234,2.846,3.234
				c1.709,2.008,3.608,3.379,3.608,3.379c5.134,2.357,13.092-0.392,13.092-0.392c4.479-2.171,10.678-0.339,10.678-0.339
				c2.504,2.67,8.688,7.916,8.688,7.916c1.902,1.454,5.83,4.695,5.83,4.695c1.369,0.629,4.195,3.71,4.195,3.71
				c-5.371-3.559-12.632-1.438-12.632-1.438c-3.24,1.372-8.967-0.124-8.967-0.124c-6.967-3.422-11.142-2.272-11.142-2.272
				c-5.624,1.534-8.64,6.325-8.64,6.325C194.767,318.848,198.465,317.744,198.465,317.744z"/>
		</g>
	</g>
</g>
<g>
	<path fill="#FFFFFF" d="M74.689,101.44c2.877,1.302,5.093,3.15,6.646,5.544s2.331,5.229,2.331,8.505
		c0,3.235-0.777,6.059-2.331,8.474c-1.554,2.416-3.77,4.263-6.646,5.544c-2.877,1.282-6.269,1.921-10.174,1.921h-8.884v12.159
		H45.425v-44.1h19.09C68.42,99.487,71.812,100.139,74.689,101.44z M70.941,121.128c1.596-1.323,2.394-3.202,2.394-5.639
		c0-2.478-0.798-4.378-2.394-5.701c-1.597-1.323-3.928-1.985-6.993-1.985h-8.316v15.309h8.316
		C67.013,123.112,69.344,122.451,70.941,121.128z"/>
	<path fill="#FFFFFF" d="M94.502,99.487h10.206v44.1H94.502V99.487z"/>
	<path fill="#FFFFFF" d="M127.671,141.414c-3.634-1.953-6.489-4.662-8.568-8.127c-2.079-3.465-3.118-7.381-3.118-11.75
		c0-4.368,1.039-8.285,3.118-11.75c2.079-3.465,4.935-6.174,8.568-8.127c3.632-1.953,7.718-2.93,12.254-2.93
		c3.821,0,7.276,0.672,10.363,2.016c3.087,1.345,5.68,3.276,7.78,5.796l-6.552,6.048c-2.983-3.443-6.679-5.166-11.088-5.166
		c-2.731,0-5.166,0.599-7.309,1.795c-2.142,1.197-3.812,2.867-5.008,5.009c-1.197,2.142-1.796,4.578-1.796,7.308
		c0,2.73,0.599,5.166,1.796,7.308c1.196,2.142,2.866,3.812,5.008,5.009c2.143,1.197,4.577,1.795,7.309,1.795
		c4.409,0,8.104-1.742,11.088-5.229l6.552,6.048c-2.101,2.563-4.704,4.516-7.813,5.859c-3.108,1.343-6.573,2.016-10.395,2.016
		C135.367,144.343,131.303,143.367,127.671,141.414z"/>
	<path fill="#FFFFFF" d="M208.973,99.487v44.1h-8.379l-21.988-26.775v26.775h-10.08v-44.1h8.443l21.924,26.775V99.487H208.973z"/>
	<path fill="#FFFFFF" d="M223.021,99.487h10.205v44.1h-10.205V99.487z"/>
	<path fill="#FFFFFF" d="M256.189,141.414c-3.633-1.953-6.488-4.662-8.568-8.127c-2.078-3.465-3.117-7.381-3.117-11.75
		c0-4.368,1.039-8.285,3.117-11.75c2.08-3.465,4.936-6.174,8.568-8.127c3.633-1.953,7.719-2.93,12.254-2.93
		c3.822,0,7.277,0.672,10.363,2.016c3.088,1.345,5.68,3.276,7.781,5.796l-6.553,6.048c-2.982-3.443-6.678-5.166-11.088-5.166
		c-2.73,0-5.166,0.599-7.309,1.795c-2.141,1.197-3.811,2.867-5.008,5.009s-1.795,4.578-1.795,7.308c0,2.73,0.598,5.166,1.795,7.308
		c1.197,2.142,2.867,3.812,5.008,5.009c2.143,1.197,4.578,1.795,7.309,1.795c4.41,0,8.105-1.742,11.088-5.229l6.553,6.048
		c-2.102,2.563-4.705,4.516-7.813,5.859c-3.109,1.343-6.574,2.016-10.395,2.016C263.885,144.343,259.822,143.367,256.189,141.414z"
		/>
</g>
<g>
	<path fill="#EBEDB9" d="M287.844,36.68v28.804c0,0-1.27,11.256-6.695,14.777l5.484,5.484c0,0,8.138-7.447,8.311-18.529h20.088
		v9.755c0,0-1.849,1.674-8.023,0.058l1.789,7.504h9.928c0,0,3.637-1.27,3.637-5.137V36.68H287.844z M315.262,59.942h-19.741v-4.907
		h19.741V59.942z M315.262,47.994h-19.741v-4.907h19.741V47.994z"/>
</g>
<g>
	<path fill="#EBEDB9" d="M280.563,74.941h-7.424v9.571h-10.287v-9.571h-24.547v-7.097l21.486-28.91h11.07l-19.924,27.412h12.24
		v-8.53h9.961v8.53h7.424V74.941z"/>
</g>
<g>
	<path fill="#FFFFFF" d="M29.764,280.606v1.575l-3.9,8.925h-2.64l3.765-8.521h-3.48v1.711h-2.16v-3.69H29.764z"/>
	<path fill="#FFFFFF" d="M35.793,290.806c-0.28-0.28-0.42-0.631-0.42-1.051c0-0.43,0.14-0.777,0.42-1.042
		c0.28-0.265,0.625-0.397,1.035-0.397s0.755,0.133,1.035,0.397c0.28,0.265,0.42,0.612,0.42,1.042c0,0.42-0.14,0.771-0.42,1.051
		c-0.28,0.279-0.625,0.42-1.035,0.42S36.073,291.085,35.793,290.806z"/>
	<path fill="#FFFFFF" d="M43.368,280.606v10.5h-2.43v-8.55h-2.1v-1.95H43.368z"/>
	<path fill="#FFFFFF" d="M52.398,285.909c0.49,0.534,0.735,1.197,0.735,1.987c0,0.609-0.16,1.172-0.48,1.688
		s-0.808,0.928-1.462,1.237c-0.655,0.31-1.458,0.466-2.407,0.466c-0.74,0-1.468-0.098-2.183-0.293
		c-0.715-0.195-1.323-0.473-1.823-0.832l0.945-1.861c0.4,0.301,0.862,0.533,1.387,0.698s1.063,0.247,1.613,0.247
		c0.61,0,1.09-0.117,1.44-0.352c0.35-0.235,0.525-0.568,0.525-0.998c0-0.859-0.655-1.29-1.965-1.29h-1.11v-1.604l2.16-2.445h-4.47
		v-1.95h7.35v1.575l-2.37,2.699C51.204,285.031,51.908,285.374,52.398,285.909z"/>
	<path fill="#FFFFFF" d="M58.9,287.13c-0.275-0.139-0.572-0.334-0.893-0.584c-0.24-0.181-0.433-0.311-0.577-0.391
		c-0.145-0.08-0.292-0.119-0.443-0.119c-0.27,0-0.49,0.104-0.66,0.314c-0.17,0.21-0.26,0.495-0.27,0.855h-1.455
		c0.01-0.92,0.22-1.628,0.63-2.123s0.95-0.742,1.62-0.742c0.36,0,0.67,0.067,0.93,0.202c0.26,0.135,0.564,0.333,0.915,0.593
		c0.24,0.18,0.43,0.31,0.57,0.39c0.14,0.08,0.285,0.12,0.435,0.12c0.28,0,0.5-0.105,0.66-0.314c0.16-0.211,0.25-0.496,0.27-0.855
		h1.47c-0.02,0.92-0.235,1.627-0.645,2.123c-0.41,0.494-0.945,0.742-1.605,0.742C59.493,287.341,59.175,287.271,58.9,287.13z"/>
	<path fill="#FFFFFF" d="M77.343,280.606v1.575l-3.9,8.925h-2.64l3.765-8.521h-3.48v1.711h-2.16v-3.69H77.343z"/>
	<path fill="#FFFFFF" d="M83.883,290.806c-0.28-0.28-0.42-0.631-0.42-1.051c0-0.43,0.14-0.777,0.42-1.042
		c0.28-0.265,0.625-0.397,1.035-0.397s0.755,0.133,1.035,0.397c0.28,0.265,0.42,0.612,0.42,1.042c0,0.42-0.14,0.771-0.42,1.051
		c-0.28,0.279-0.625,0.42-1.035,0.42S84.163,291.085,83.883,290.806z"/>
	<path fill="#FFFFFF" d="M91.458,280.606v10.5h-2.43v-8.55h-2.1v-1.95H91.458z"/>
	<path fill="#FFFFFF" d="M100.608,281.769c0.83,0.895,1.245,2.182,1.245,3.861c0,1.191-0.223,2.211-0.667,3.061
		c-0.445,0.85-1.073,1.495-1.883,1.936c-0.81,0.439-1.745,0.66-2.805,0.66c-0.561,0-1.095-0.063-1.605-0.188
		c-0.51-0.125-0.945-0.303-1.305-0.533l0.9-1.785c0.51,0.351,1.165,0.525,1.965,0.525c0.89,0,1.595-0.263,2.115-0.787
		c0.52-0.525,0.8-1.283,0.84-2.273c-0.63,0.631-1.5,0.945-2.61,0.945c-0.67,0-1.28-0.135-1.83-0.404
		c-0.55-0.271-0.985-0.653-1.305-1.148c-0.32-0.494-0.48-1.066-0.48-1.717c0-0.7,0.175-1.315,0.525-1.846
		c0.35-0.529,0.827-0.938,1.432-1.223s1.277-0.428,2.018-0.428C98.628,280.425,99.778,280.874,100.608,281.769z M98.636,284.933
		c0.335-0.295,0.502-0.672,0.502-1.133c0-0.459-0.163-0.834-0.487-1.125c-0.325-0.289-0.772-0.435-1.343-0.435
		c-0.52,0-0.942,0.141-1.267,0.421c-0.325,0.279-0.488,0.659-0.488,1.139c0,0.48,0.163,0.863,0.488,1.148
		c0.325,0.285,0.757,0.428,1.297,0.428C97.868,285.376,98.301,285.228,98.636,284.933z"/>
</g>
<g>
	<path fill="#FFFFFF" d="M129.885,214.293l-1.05,0.915c-0.51-0.38-1.098-0.963-1.763-1.748s-1.177-1.521-1.538-2.212
		c-0.33,0.86-0.81,1.708-1.44,2.542c-0.63,0.836-1.22,1.479-1.77,1.928l-1.095-0.855c0.99-0.699,1.827-1.672,2.512-2.917
		s1.028-2.382,1.028-3.413v-1.08h1.5v1.066c0,0.979,0.33,1.982,0.99,3.007S128.795,213.474,129.885,214.293z M122.745,220.803
		v-4.319h1.47v3.045h10.365v1.274H122.745z M129.166,211.398v-1.274h3.72v-2.655h1.47v9.27h-1.47v-5.34H129.166z"/>
	<path fill="#FFFFFF" d="M143.865,214.293l-1.05,0.915c-0.51-0.38-1.098-0.963-1.763-1.748s-1.177-1.521-1.538-2.212
		c-0.33,0.86-0.81,1.708-1.44,2.542c-0.63,0.836-1.22,1.479-1.77,1.928l-1.095-0.855c0.99-0.699,1.827-1.672,2.512-2.917
		s1.028-2.382,1.028-3.413v-1.08h1.5v1.066c0,0.979,0.33,1.982,0.99,3.007S142.775,213.474,143.865,214.293z M136.725,220.803
		v-4.319h1.47v3.045h10.365v1.274H136.725z M143.146,211.398v-1.274h3.72v-2.655h1.47v9.27h-1.47v-5.34H143.146z"/>
	<path fill="#FFFFFF" d="M156.3,209.208v1.275h-6.81v-1.275h2.55v-2.07h1.47v2.07H156.3z M152.896,211.713c1,0,1.8,0.425,2.4,1.274
		c0.6,0.851,0.9,1.926,0.9,3.226c0,1.29-0.3,2.36-0.9,3.21s-1.4,1.275-2.4,1.275c-1.02,0-1.83-0.42-2.43-1.26
		c-0.6-0.841-0.9-1.916-0.9-3.226c0-1.3,0.302-2.375,0.907-3.226C151.078,212.138,151.885,211.713,152.896,211.713z
		 M154.283,213.941c-0.315-0.654-0.783-0.982-1.402-0.982c-0.62,0-1.085,0.324-1.395,0.975c-0.31,0.65-0.465,1.41-0.465,2.28
		s0.155,1.628,0.465,2.272c0.31,0.645,0.775,0.967,1.395,0.967c0.61,0,1.075-0.324,1.395-0.975c0.32-0.649,0.48-1.399,0.48-2.25
		C154.755,215.359,154.598,214.595,154.283,213.941z M162.81,207.468v13.484h-1.47v-6.539h-2.175v6.465h-1.47v-13.335h1.47v5.534
		h2.175v-5.609H162.81z"/>
	<path fill="#FFFFFF" d="M172.665,214.249l-0.944,0.93c-0.58-0.35-1.229-0.87-1.943-1.56c-0.715-0.69-1.258-1.355-1.627-1.995
		c-0.37,0.83-0.92,1.632-1.65,2.407s-1.385,1.328-1.965,1.658l-1.02-0.841c1.1-0.63,2.012-1.487,2.737-2.572
		c0.726-1.085,1.088-2.093,1.088-3.022v-0.391h-3.33v-1.244h8.46v1.244h-3.631v0.42c0,0.811,0.367,1.676,1.104,2.596
		C170.678,212.798,171.585,213.588,172.665,214.249z M164.985,220.803v-4.17h1.47v2.896h10.215v1.274H164.985z M176.445,207.468
		v9.27h-1.471v-9.27H176.445z"/>
	<path fill="#FFFFFF" d="M181.875,213.574v-5.955h1.47v4.68h6.705v1.275H181.875z M182.22,220.953v-3.6h9.99v-1.14h-9.99v-1.229
		h11.46v3.6h-9.99v1.14h10.215v1.229H182.22z M193.68,207.468v2.551h1.665v1.334h-1.665v2.745h-1.47v-6.63H193.68z"/>
	<path fill="#FFFFFF" d="M205.425,219.529l-1.14,0.66c-0.261-0.371-0.576-0.963-0.945-1.778c-0.37-0.815-0.66-1.583-0.87-2.302
		c-0.21,0.81-0.55,1.622-1.021,2.438c-0.47,0.814-0.904,1.387-1.305,1.717c-0.35-0.29-0.768-0.842-1.252-1.657
		c-0.485-0.815-0.848-1.622-1.088-2.423c-0.16,0.74-0.422,1.533-0.787,2.378s-0.688,1.447-0.968,1.808l-1.2-0.555
		c1.48-2.24,2.221-4.976,2.221-8.205v-4.006h1.47v4.26c0,2.74,0.54,4.891,1.62,6.451c0.979-1.561,1.47-3.711,1.47-6.451v-4.26h1.47
		v3.99c0,1.27,0.215,2.641,0.645,4.109C204.175,217.173,204.734,218.449,205.425,219.529z M208.41,207.468v13.484h-1.471v-13.484
		H208.41z"/>
	<path fill="#FFFFFF" d="M98.911,244.428v-1.274h1.965l-0.33-8.551h1.455l0.33,8.551h2.835l0.345-8.551h1.455l-0.345,8.551h2.22
		v1.274H98.911z M99.316,233.043v-1.274h8.655v1.274H99.316z M111.796,231.468v13.484h-1.47v-13.484H111.796z"/>
	<path fill="#FFFFFF" d="M113.221,244.443v-1.274h12.825v1.274H113.221z M114.076,232.968v-1.275h10.755v9.556h-1.47v-3.435h-9.285
		v-1.275h9.285v-3.57H114.076z"/>
	<path fill="#FFFFFF" d="M127.425,238.548v-6.93h1.47v5.654h6.855v1.275H127.425z M127.845,241.758v-1.274h11.685v4.469h-1.47
		v-3.194H127.845z M139.53,231.468v7.785h-1.47v-7.785H139.53z"/>
	<path fill="#FFFFFF" d="M140.88,238.369v-1.26h13.125v1.26H140.88z M153.42,233.583c0,0.5-0.148,0.922-0.442,1.268
		c-0.295,0.345-0.728,0.607-1.298,0.787c-0.57,0.18-1.192,0.308-1.867,0.383c-0.675,0.074-1.463,0.112-2.363,0.112
		c-3.99,0-5.985-0.85-5.985-2.55c0-1.74,1.995-2.61,5.985-2.61c0.9,0,1.688,0.038,2.363,0.112c0.675,0.075,1.297,0.205,1.867,0.391
		c0.57,0.186,1.002,0.455,1.298,0.81C153.272,232.641,153.42,233.074,153.42,233.583z M141.69,244.953v-3.389h9.975v-0.931h-9.975
		v-1.215h11.46v3.36h-9.975v0.959h10.245v1.215H141.69z M151.875,233.568c0-0.479-0.343-0.822-1.028-1.027s-1.817-0.307-3.397-0.307
		c-1.59,0-2.728,0.102-3.413,0.307s-1.027,0.548-1.027,1.027c0,0.471,0.342,0.806,1.027,1.006c0.685,0.199,1.823,0.3,3.413,0.3
		c1.59,0,2.725-0.101,3.405-0.3C151.535,234.374,151.875,234.039,151.875,233.568z"/>
	<path fill="#FFFFFF" d="M158.445,240.753v-1.275h10.275v1.275h-4.951v3.975h-1.47v-3.975H158.445z M158.94,234.633
		c0-1.04,0.388-1.905,1.163-2.595c0.775-0.69,1.802-1.035,3.083-1.035c1.28,0,2.313,0.35,3.098,1.05
		c0.784,0.7,1.177,1.56,1.177,2.58s-0.396,1.878-1.185,2.573c-0.791,0.694-1.82,1.042-3.09,1.042s-2.295-0.348-3.075-1.042
		C159.33,236.511,158.94,235.654,158.94,234.633z M160.395,234.633c0,0.66,0.245,1.22,0.735,1.681
		c0.49,0.459,1.175,0.689,2.055,0.689s1.567-0.23,2.063-0.689c0.495-0.461,0.743-1.021,0.743-1.681c0-0.649-0.248-1.21-0.743-1.681
		c-0.495-0.469-1.183-0.704-2.063-0.704s-1.565,0.235-2.055,0.704C160.64,233.423,160.395,233.984,160.395,234.633z M171.42,231.468
		v13.484h-1.47v-13.484H171.42z"/>
	<path fill="#FFFFFF" d="M172.5,233.613v-1.244h3.615v-1.44h1.47v1.44h3.78v1.244H172.5z M172.965,237.318
		c0-0.869,0.367-1.584,1.103-2.145s1.697-0.84,2.888-0.84c1.189,0,2.152,0.279,2.887,0.84c0.736,0.561,1.104,1.275,1.104,2.145
		c0,0.891-0.367,1.615-1.104,2.176c-0.734,0.561-1.697,0.84-2.887,0.84c-1.2,0-2.166-0.277-2.895-0.832
		C173.33,238.946,172.965,238.218,172.965,237.318z M173.79,244.803v-3.69h1.47v2.416h10.064v1.274H173.79z M174.449,237.318
		c0,0.531,0.216,0.961,0.646,1.291c0.431,0.33,1.05,0.494,1.86,0.494c0.82,0,1.445-0.164,1.875-0.494s0.645-0.76,0.645-1.291
		c0-0.52-0.217-0.944-0.652-1.274s-1.057-0.495-1.867-0.495s-1.43,0.165-1.86,0.495
		C174.665,236.374,174.449,236.798,174.449,237.318z M185.1,231.468v4.064h1.666v1.336H185.1v4.17h-1.47v-9.57H185.1z"/>
	<path fill="#FFFFFF" d="M203.145,231.543v1.274h-5.025c0.23,0.791,0.857,1.465,1.883,2.025s2.293,0.92,3.803,1.08l-0.63,1.109
		c-1.06-0.09-2.165-0.389-3.315-0.899c-1.15-0.51-2.005-1.13-2.564-1.86c-0.65,0.75-1.559,1.383-2.723,1.898
		c-1.165,0.515-2.253,0.816-3.263,0.906l-0.63-1.154c1.5-0.16,2.765-0.52,3.795-1.08c1.029-0.561,1.66-1.234,1.891-2.025h-5.011
		v-1.274H203.145z M190.68,239.689v-1.275h13.125v1.275h-5.67v2.685h-1.471v-2.685H190.68z M191.625,244.803v-3.765h1.47v2.49h10.14
		v1.274H191.625z"/>
	<path fill="#FFFFFF" d="M212.805,231.769v12.659h-7.77v-12.659h1.47v4.604h4.829v-4.604H212.805z M206.505,237.648v5.506h4.829
		v-5.506H206.505z M217.14,231.468v13.484h-1.47v-13.484H217.14z"/>
	<path fill="#FFFFFF" d="M218.489,238.218v-1.26h13.125v1.26h-5.82v1.2h4.966v3.36h-9.976v0.959h10.245v1.215h-11.73v-3.389h9.976
		v-0.931h-9.976v-1.215h5.025v-1.2H218.489z M219.209,235.863v-4.319h11.686v4.319H219.209z M220.68,232.758v1.89h8.744v-1.89
		H220.68z"/>
</g>
<g>
	<path fill="#EBEDB9" d="M75.51,171.111v3.256h-7.225v4.578h-4.367v-4.578h-7.245v-3.256H75.51z M75.11,164.35
		c0,0.868-0.175,1.635-0.524,2.299c-0.351,0.665-0.809,1.204-1.376,1.617s-1.253,0.749-2.058,1.008
		c-0.806,0.259-1.614,0.438-2.426,0.536c-0.813,0.098-1.688,0.146-2.625,0.146c-0.938,0-1.824-0.053-2.656-0.158
		c-0.833-0.104-1.646-0.293-2.437-0.566s-1.474-0.616-2.047-1.029c-0.574-0.413-1.033-0.948-1.376-1.606s-0.515-1.407-0.515-2.247
		c0-1.036,0.256-1.936,0.767-2.699c0.511-0.763,1.211-1.347,2.101-1.753c0.889-0.406,1.84-0.7,2.855-0.882
		c1.015-0.182,2.117-0.273,3.308-0.273c1.176,0,2.268,0.091,3.276,0.273c1.008,0.182,1.956,0.476,2.845,0.882
		c0.89,0.406,1.593,0.991,2.111,1.753C74.852,162.414,75.11,163.313,75.11,164.35z M70.89,164.35c0-1.582-1.596-2.373-4.788-2.373
		c-3.206,0-4.809,0.791-4.809,2.373s1.603,2.373,4.809,2.373C69.294,166.723,70.89,165.932,70.89,164.35z"/>
	<path fill="#EBEDB9" d="M77.693,178v-11.13h7.645v-3.822h-7.645v-3.192h11.634v10.207h-7.644v4.746h8.358V178H77.693z
		 M95.816,159.436v19.298h-4.095v-19.298H95.816z"/>
	<path fill="#EBEDB9" d="M122.97,174.955v3.255h-18.417v-3.255h7.035v-2.835h4.367v2.835H122.97z M122.612,165.336
		c0,0.938-0.172,1.774-0.515,2.51c-0.343,0.735-0.794,1.33-1.354,1.784c-0.56,0.455-1.231,0.83-2.016,1.124
		s-1.579,0.497-2.384,0.608c-0.805,0.113-1.662,0.169-2.572,0.169c-1.162,0-2.244-0.104-3.244-0.315
		c-1.002-0.21-1.939-0.542-2.814-0.997s-1.562-1.099-2.058-1.932c-0.497-0.833-0.746-1.816-0.746-2.951
		c0-1.134,0.249-2.117,0.746-2.95c0.496-0.833,1.179-1.477,2.047-1.932s1.803-0.788,2.804-0.998s2.09-0.315,3.266-0.315
		c0.91,0,1.771,0.06,2.583,0.178c0.812,0.119,1.606,0.333,2.384,0.641c0.776,0.308,1.445,0.69,2.005,1.145
		c0.561,0.455,1.012,1.047,1.354,1.774C122.44,163.607,122.612,164.427,122.612,165.336z M118.454,165.336
		c0-2.002-1.561-3.003-4.683-3.003c-3.137,0-4.704,1.001-4.704,3.003c0,2.002,1.567,3.003,4.704,3.003
		C116.894,168.339,118.454,167.339,118.454,165.336z"/>
	<path fill="#EBEDB9" d="M143.759,167.164v2.751h-18.837v-2.751H143.759z M125.698,173.023v-2.289h17.283v5.123h-12.033v0.588
		h12.349v2.289h-17.599v-5.123h12.033v-0.588H125.698z M125.804,166.261v-6.72h4.305v3.801h12.979v2.919H125.804z"/>
	<path fill="#EBEDB9" d="M157.136,164.266l0.272,10.479h2.017l0.398-10.479h3.99l-0.399,10.479h2.185V178h-13.986v-3.255h1.806
		l-0.272-10.479H157.136z M152.032,163.11v-3.255h12.853v3.255H152.032z M170.681,159.436v19.298h-4.096v-19.298H170.681z"/>
	<path fill="#EBEDB9" d="M191.429,174.64v3.465h-18.417v-3.465H191.429z M173.872,163.131v-3.381h16.38v13.419h-4.221v-3.549
		h-12.159v-3.36h12.159v-3.129H173.872z"/>
	<path fill="#EBEDB9" d="M193.822,170.187v-10.542h4.096v7.392h8.147v3.149H193.822z M211.945,171.888v6.846h-4.305v-3.695h-13.503
		v-3.15H211.945z M211.945,159.436v11.487h-4.095v-11.487H211.945z"/>
	<path fill="#EBEDB9" d="M220.576,162.732v-3.087h11.445c0.069,2.786-0.833,5.05-2.709,6.793s-4.382,2.734-7.519,2.972l-2.31-2.793
		c4.438-0.406,6.993-1.701,7.665-3.885H220.576z M221.122,172.392v-2.52h17.389v5.691h-12.769v0.65h12.915v2.52h-17.535v-5.67
		h12.769v-0.672H221.122z M238.511,159.436v3.36h1.89v3.045h-1.89v3.36h-3.99v-9.765H238.511z"/>
	<path fill="#EBEDB9" d="M241.492,178v-11.256h5.502v-3.696h-5.502v-3.192h9.177v10.08h-5.502v4.873h5.985V178H241.492z
		 M260.665,159.436v19.298h-3.779v-8.735h-1.177v8.631h-3.779v-19.089h3.779v7.098h1.177v-7.203H260.665z"/>
	<path fill="#EBEDB9" d="M269.759,172.728h-3.76c0-1.063,0.088-1.924,0.263-2.582s0.417-1.17,0.725-1.534s0.791-0.812,1.449-1.344
		c0.896-0.728,1.344-1.624,1.344-2.688c0-1.316-0.623-1.974-1.869-1.974c-0.7,0-1.211,0.231-1.533,0.693
		c-0.322,0.462-0.504,1.148-0.546,2.058h-3.569c-0.042-1.792,0.434-3.203,1.428-4.231s2.323-1.578,3.99-1.648
		c1.764-0.07,3.174,0.297,4.231,1.103c1.057,0.805,1.585,2.041,1.585,3.707c0,1.078-0.203,2.005-0.608,2.782
		c-0.406,0.777-1.016,1.509-1.827,2.194c-0.616,0.504-0.987,0.959-1.113,1.365S269.759,171.735,269.759,172.728z M269.905,174.093
		v3.885h-4.053v-3.885H269.905z"/>
</g>
</svg>
