<?xml version="1.0" encoding="utf-8"?>
<!-- Generator: Adobe Illustrator 16.0.0, SVG Export Plug-In . SVG Version: 6.00 Build 0)  -->
<!DOCTYPE svg PUBLIC "-//W3C//DTD SVG 1.1//EN" "http://www.w3.org/Graphics/SVG/1.1/DTD/svg11.dtd">
<svg version="1.1" id="Layer_1" xmlns="http://www.w3.org/2000/svg" xmlns:xlink="http://www.w3.org/1999/xlink" x="0px" y="0px"
	 width="63.618px" height="63.617px" viewBox="0 0 63.618 63.617" enable-background="new 0 0 63.618 63.617" xml:space="preserve">
<circle fill="#FFFFFF" cx="31.809" cy="31.809" r="31.809"/>
<g>
	<path fill="#3B1E1D" d="M31.81,16.941c-9.962,0-18.038,6.27-18.038,14.004c0,4.953,3.32,9.305,8.32,11.793l-0.01-0.004
		l-1.539,7.313l7.693-5.1l0.334-0.236c1.051,0.148,2.131,0.236,3.239,0.236c9.962,0,18.035-6.27,18.035-14.002
		C49.844,23.211,41.771,16.941,31.81,16.941z M26.801,44.432l-0.255-0.092c0.082,0.02,0.166,0.031,0.246,0.051L26.801,44.432z"/>
	<g>
		<g>
			<path fill="#EFD925" d="M25.028,28.076h-2.366v7.074h-1.367v-7.074h-2.36v-1.16h6.093V28.076z"/>
			<path fill="#EFD925" d="M32.202,35.15h-1.499l-0.741-2.096h-3.238l-0.712,2.096h-1.493l3.083-8.234h1.539L32.202,35.15z
				 M29.601,31.94l-1.143-3.284c-0.034-0.107-0.071-0.279-0.109-0.517h-0.023c-0.035,0.218-0.073,0.39-0.115,0.517L27.08,31.94
				H29.601z"/>
			<path fill="#EFD925" d="M37.951,35.15h-4.559v-8.234h1.366v7.08h3.193V35.15z"/>
			<path fill="#EFD925" d="M45.429,35.15h-1.78l-2.866-3.767c-0.107-0.142-0.172-0.237-0.195-0.287h-0.023v4.054h-1.366v-8.234
				h1.366v3.87h0.023c0.046-0.084,0.111-0.178,0.195-0.281l2.762-3.589h1.636l-3.232,3.951L45.429,35.15z"/>
		</g>
	</g>
</g>
<rect x="26.084" y="43.764" fill="#3B1E1D" width="0.984" height="0.906"/>
</svg>
